<svg width="1440" height="1025" viewBox="0 0 1440 1025" fill="none" xmlns="http://www.w3.org/2000/svg">
<g opacity="0.5" filter="url(#filter0_f_1_14435)">
<circle cx="160.5" cy="1374.5" r="176.5" fill="#D2F801" fill-opacity="0.34"/>
</g>
<g opacity="0.5" filter="url(#filter1_f_1_14435)">
<circle cx="470.5" cy="864.5" r="176.5" fill="#D2F801" fill-opacity="0.34"/>
</g>
<g opacity="0.5" filter="url(#filter2_f_1_14435)">
<circle cx="1308.42" cy="524.908" r="124.908" fill="#D2F801"/>
</g>
<g opacity="0.12" clip-path="url(#clip0_1_14435)">
<mask id="mask0_1_14435" style="mask-type:alpha" maskUnits="userSpaceOnUse" x="-28" y="465" width="1498" height="1498">
<rect width="1497.02" height="1244.4" transform="translate(-27.502 465.558)" fill="url(#paint0_radial_1_14435)"/>
</mask>
<g mask="url(#mask0_1_14435)">
<g clip-path="url(#clip1_1_14435)">
<mask id="path-6-inside-1_1_14435" fill="white">
<path d="M-77.4026 465.558H22.3988V565.359H-77.4026V465.558Z"/>
</mask>
<path d="M22.3988 565.359V566.399H23.4384V565.359H22.3988ZM21.3592 465.558V565.359H23.4384V465.558H21.3592ZM22.3988 564.319H-77.4026V566.399H22.3988V564.319Z" fill="#D0D5DD" fill-opacity="0.32" mask="url(#path-6-inside-1_1_14435)"/>
<mask id="path-8-inside-2_1_14435" fill="white">
<path d="M22.3988 465.558H122.2V565.359H22.3988V465.558Z"/>
</mask>
<path d="M122.2 565.359V566.399H123.24V565.359H122.2ZM121.161 465.558V565.359H123.24V465.558H121.161ZM122.2 564.319H22.3988V566.399H122.2V564.319Z" fill="#D0D5DD" fill-opacity="0.32" mask="url(#path-8-inside-2_1_14435)"/>
<mask id="path-10-inside-3_1_14435" fill="white">
<path d="M122.2 465.558H222.002V565.359H122.2V465.558Z"/>
</mask>
<path d="M222.002 565.359V566.399H223.041V565.359H222.002ZM220.962 465.558V565.359H223.041V465.558H220.962ZM222.002 564.319H122.2V566.399H222.002V564.319Z" fill="#D0D5DD" fill-opacity="0.32" mask="url(#path-10-inside-3_1_14435)"/>
<mask id="path-12-inside-4_1_14435" fill="white">
<path d="M222.001 465.558H321.803V565.359H222.001V465.558Z"/>
</mask>
<path d="M321.803 565.359V566.399H322.842V565.359H321.803ZM320.763 465.558V565.359H322.842V465.558H320.763ZM321.803 564.319H222.001V566.399H321.803V564.319Z" fill="#D0D5DD" fill-opacity="0.32" mask="url(#path-12-inside-4_1_14435)"/>
<mask id="path-14-inside-5_1_14435" fill="white">
<path d="M321.803 465.558H421.604V565.359H321.803V465.558Z"/>
</mask>
<path d="M421.604 565.359V566.399H422.644V565.359H421.604ZM420.565 465.558V565.359H422.644V465.558H420.565ZM421.604 564.319H321.803V566.399H421.604V564.319Z" fill="#D0D5DD" fill-opacity="0.32" mask="url(#path-14-inside-5_1_14435)"/>
<mask id="path-16-inside-6_1_14435" fill="white">
<path d="M421.604 465.558H521.406V565.359H421.604V465.558Z"/>
</mask>
<path d="M521.406 565.359V566.399H522.445V565.359H521.406ZM520.366 465.558V565.359H522.445V465.558H520.366ZM521.406 564.319H421.604V566.399H521.406V564.319Z" fill="#D0D5DD" fill-opacity="0.32" mask="url(#path-16-inside-6_1_14435)"/>
<mask id="path-18-inside-7_1_14435" fill="white">
<path d="M521.406 465.558H621.207V565.359H521.406V465.558Z"/>
</mask>
<path d="M621.207 565.359V566.399H622.247V565.359H621.207ZM620.167 465.558V565.359H622.247V465.558H620.167ZM621.207 564.319H521.406V566.399H621.207V564.319Z" fill="#D0D5DD" fill-opacity="0.32" mask="url(#path-18-inside-7_1_14435)"/>
<mask id="path-20-inside-8_1_14435" fill="white">
<path d="M621.207 465.558H721.008V565.359H621.207V465.558Z"/>
</mask>
<path d="M721.008 565.359V566.399H722.048V565.359H721.008ZM719.969 465.558V565.359H722.048V465.558H719.969ZM721.008 564.319H621.207V566.399H721.008V564.319Z" fill="#D0D5DD" fill-opacity="0.32" mask="url(#path-20-inside-8_1_14435)"/>
<mask id="path-22-inside-9_1_14435" fill="white">
<path d="M721.008 465.558H820.81V565.359H721.008V465.558Z"/>
</mask>
<path d="M820.81 565.359V566.399H821.849V565.359H820.81ZM819.77 465.558V565.359H821.849V465.558H819.77ZM820.81 564.319H721.008V566.399H820.81V564.319Z" fill="#D0D5DD" fill-opacity="0.32" mask="url(#path-22-inside-9_1_14435)"/>
<mask id="path-24-inside-10_1_14435" fill="white">
<path d="M820.81 465.558H920.611V565.359H820.81V465.558Z"/>
</mask>
<path d="M920.611 565.359V566.399H921.651V565.359H920.611ZM919.571 465.558V565.359H921.651V465.558H919.571ZM920.611 564.319H820.81V566.399H920.611V564.319Z" fill="#D0D5DD" fill-opacity="0.32" mask="url(#path-24-inside-10_1_14435)"/>
<mask id="path-26-inside-11_1_14435" fill="white">
<path d="M920.611 465.558H1020.41V565.359H920.611V465.558Z"/>
</mask>
<path d="M1020.41 565.359V566.399H1021.45V565.359H1020.41ZM1019.37 465.558V565.359H1021.45V465.558H1019.37ZM1020.41 564.319H920.611V566.399H1020.41V564.319Z" fill="#D0D5DD" fill-opacity="0.32" mask="url(#path-26-inside-11_1_14435)"/>
<mask id="path-28-inside-12_1_14435" fill="white">
<path d="M1020.41 465.558H1120.21V565.359H1020.41V465.558Z"/>
</mask>
<path d="M1120.21 565.359V566.399H1121.25V565.359H1120.21ZM1119.17 465.558V565.359H1121.25V465.558H1119.17ZM1120.21 564.319H1020.41V566.399H1120.21V564.319Z" fill="#D0D5DD" fill-opacity="0.32" mask="url(#path-28-inside-12_1_14435)"/>
<mask id="path-30-inside-13_1_14435" fill="white">
<path d="M1120.21 465.558H1220.02V565.359H1120.21V465.558Z"/>
</mask>
<path d="M1220.02 565.359V566.399H1221.05V565.359H1220.02ZM1218.98 465.558V565.359H1221.05V465.558H1218.98ZM1220.02 564.319H1120.21V566.399H1220.02V564.319Z" fill="#D0D5DD" fill-opacity="0.32" mask="url(#path-30-inside-13_1_14435)"/>
<mask id="path-32-inside-14_1_14435" fill="white">
<path d="M1220.02 465.558H1319.82V565.359H1220.02V465.558Z"/>
</mask>
<path d="M1319.82 565.359V566.399H1320.86V565.359H1319.82ZM1318.78 465.558V565.359H1320.86V465.558H1318.78ZM1319.82 564.319H1220.02V566.399H1319.82V564.319Z" fill="#D0D5DD" fill-opacity="0.32" mask="url(#path-32-inside-14_1_14435)"/>
<mask id="path-34-inside-15_1_14435" fill="white">
<path d="M1319.82 465.558H1419.62V565.359H1319.82V465.558Z"/>
</mask>
<path d="M1419.62 565.359V566.399H1420.66V565.359H1419.62ZM1418.58 465.558V565.359H1420.66V465.558H1418.58ZM1419.62 564.319H1319.82V566.399H1419.62V564.319Z" fill="#D0D5DD" fill-opacity="0.32" mask="url(#path-34-inside-15_1_14435)"/>
<mask id="path-36-inside-16_1_14435" fill="white">
<path d="M1419.62 465.558H1519.42V565.359H1419.62V465.558Z"/>
</mask>
<path d="M1519.42 565.359V566.399H1520.46V565.359H1519.42ZM1518.38 465.558V565.359H1520.46V465.558H1518.38ZM1519.42 564.319H1419.62V566.399H1519.42V564.319Z" fill="#D0D5DD" fill-opacity="0.32" mask="url(#path-36-inside-16_1_14435)"/>
<mask id="path-38-inside-17_1_14435" fill="white">
<path d="M-77.4026 565.359H22.3988V665.16H-77.4026V565.359Z"/>
</mask>
<path d="M22.3988 665.16V666.2H23.4384V665.16H22.3988ZM21.3592 565.359V665.16H23.4384V565.359H21.3592ZM22.3988 664.121H-77.4026V666.2H22.3988V664.121Z" fill="#D0D5DD" fill-opacity="0.32" mask="url(#path-38-inside-17_1_14435)"/>
<mask id="path-40-inside-18_1_14435" fill="white">
<path d="M22.3988 565.359H122.2V665.16H22.3988V565.359Z"/>
</mask>
<path d="M122.2 665.16V666.2H123.24V665.16H122.2ZM121.161 565.359V665.16H123.24V565.359H121.161ZM122.2 664.121H22.3988V666.2H122.2V664.121Z" fill="#D0D5DD" fill-opacity="0.32" mask="url(#path-40-inside-18_1_14435)"/>
<mask id="path-42-inside-19_1_14435" fill="white">
<path d="M122.2 565.359H222.002V665.16H122.2V565.359Z"/>
</mask>
<path d="M222.002 665.16V666.2H223.041V665.16H222.002ZM220.962 565.359V665.16H223.041V565.359H220.962ZM222.002 664.121H122.2V666.2H222.002V664.121Z" fill="#D0D5DD" fill-opacity="0.32" mask="url(#path-42-inside-19_1_14435)"/>
<mask id="path-44-inside-20_1_14435" fill="white">
<path d="M222.001 565.359H321.803V665.16H222.001V565.359Z"/>
</mask>
<path d="M222.001 565.359H321.803V665.16H222.001V565.359Z" fill="#F2F4F7" fill-opacity="0.1"/>
<path d="M321.803 665.16V666.2H322.842V665.16H321.803ZM320.763 565.359V665.16H322.842V565.359H320.763ZM321.803 664.121H222.001V666.2H321.803V664.121Z" fill="#D0D5DD" fill-opacity="0.32" mask="url(#path-44-inside-20_1_14435)"/>
<mask id="path-46-inside-21_1_14435" fill="white">
<path d="M321.803 565.359H421.604V665.16H321.803V565.359Z"/>
</mask>
<path d="M421.604 665.16V666.2H422.644V665.16H421.604ZM420.565 565.359V665.16H422.644V565.359H420.565ZM421.604 664.121H321.803V666.2H421.604V664.121Z" fill="#D0D5DD" fill-opacity="0.32" mask="url(#path-46-inside-21_1_14435)"/>
<mask id="path-48-inside-22_1_14435" fill="white">
<path d="M421.604 565.359H521.406V665.16H421.604V565.359Z"/>
</mask>
<path d="M521.406 665.16V666.2H522.445V665.16H521.406ZM520.366 565.359V665.16H522.445V565.359H520.366ZM521.406 664.121H421.604V666.2H521.406V664.121Z" fill="#D0D5DD" fill-opacity="0.32" mask="url(#path-48-inside-22_1_14435)"/>
<mask id="path-50-inside-23_1_14435" fill="white">
<path d="M521.406 565.359H621.207V665.16H521.406V565.359Z"/>
</mask>
<path d="M621.207 665.16V666.2H622.247V665.16H621.207ZM620.167 565.359V665.16H622.247V565.359H620.167ZM621.207 664.121H521.406V666.2H621.207V664.121Z" fill="#D0D5DD" fill-opacity="0.32" mask="url(#path-50-inside-23_1_14435)"/>
<mask id="path-52-inside-24_1_14435" fill="white">
<path d="M621.207 565.359H721.008V665.16H621.207V565.359Z"/>
</mask>
<path d="M721.008 665.16V666.2H722.048V665.16H721.008ZM719.969 565.359V665.16H722.048V565.359H719.969ZM721.008 664.121H621.207V666.2H721.008V664.121Z" fill="#D0D5DD" fill-opacity="0.32" mask="url(#path-52-inside-24_1_14435)"/>
<mask id="path-54-inside-25_1_14435" fill="white">
<path d="M721.008 565.359H820.81V665.16H721.008V565.359Z"/>
</mask>
<path d="M820.81 665.16V666.2H821.849V665.16H820.81ZM819.77 565.359V665.16H821.849V565.359H819.77ZM820.81 664.121H721.008V666.2H820.81V664.121Z" fill="#D0D5DD" fill-opacity="0.32" mask="url(#path-54-inside-25_1_14435)"/>
<mask id="path-56-inside-26_1_14435" fill="white">
<path d="M820.81 565.359H920.611V665.16H820.81V565.359Z"/>
</mask>
<path d="M920.611 665.16V666.2H921.651V665.16H920.611ZM919.571 565.359V665.16H921.651V565.359H919.571ZM920.611 664.121H820.81V666.2H920.611V664.121Z" fill="#D0D5DD" fill-opacity="0.32" mask="url(#path-56-inside-26_1_14435)"/>
<mask id="path-58-inside-27_1_14435" fill="white">
<path d="M920.611 565.359H1020.41V665.16H920.611V565.359Z"/>
</mask>
<path d="M1020.41 665.16V666.2H1021.45V665.16H1020.41ZM1019.37 565.359V665.16H1021.45V565.359H1019.37ZM1020.41 664.121H920.611V666.2H1020.41V664.121Z" fill="#D0D5DD" fill-opacity="0.32" mask="url(#path-58-inside-27_1_14435)"/>
<mask id="path-60-inside-28_1_14435" fill="white">
<path d="M1020.41 565.359H1120.21V665.16H1020.41V565.359Z"/>
</mask>
<path d="M1120.21 665.16V666.2H1121.25V665.16H1120.21ZM1119.17 565.359V665.16H1121.25V565.359H1119.17ZM1120.21 664.121H1020.41V666.2H1120.21V664.121Z" fill="#D0D5DD" fill-opacity="0.32" mask="url(#path-60-inside-28_1_14435)"/>
<mask id="path-62-inside-29_1_14435" fill="white">
<path d="M1120.21 565.359H1220.02V665.16H1120.21V565.359Z"/>
</mask>
<path d="M1120.21 565.359H1220.02V665.16H1120.21V565.359Z" fill="#F2F4F7" fill-opacity="0.1"/>
<path d="M1220.02 665.16V666.2H1221.05V665.16H1220.02ZM1218.98 565.359V665.16H1221.05V565.359H1218.98ZM1220.02 664.121H1120.21V666.2H1220.02V664.121Z" fill="#D0D5DD" fill-opacity="0.32" mask="url(#path-62-inside-29_1_14435)"/>
<mask id="path-64-inside-30_1_14435" fill="white">
<path d="M1220.02 565.359H1319.82V665.16H1220.02V565.359Z"/>
</mask>
<path d="M1319.82 665.16V666.2H1320.86V665.16H1319.82ZM1318.78 565.359V665.16H1320.86V565.359H1318.78ZM1319.82 664.121H1220.02V666.2H1319.82V664.121Z" fill="#D0D5DD" fill-opacity="0.32" mask="url(#path-64-inside-30_1_14435)"/>
<mask id="path-66-inside-31_1_14435" fill="white">
<path d="M1319.82 565.359H1419.62V665.16H1319.82V565.359Z"/>
</mask>
<path d="M1419.62 665.16V666.2H1420.66V665.16H1419.62ZM1418.58 565.359V665.16H1420.66V565.359H1418.58ZM1419.62 664.121H1319.82V666.2H1419.62V664.121Z" fill="#D0D5DD" fill-opacity="0.32" mask="url(#path-66-inside-31_1_14435)"/>
<mask id="path-68-inside-32_1_14435" fill="white">
<path d="M1419.62 565.359H1519.42V665.16H1419.62V565.359Z"/>
</mask>
<path d="M1519.42 665.16V666.2H1520.46V665.16H1519.42ZM1518.38 565.359V665.16H1520.46V565.359H1518.38ZM1519.42 664.121H1419.62V666.2H1519.42V664.121Z" fill="#D0D5DD" fill-opacity="0.32" mask="url(#path-68-inside-32_1_14435)"/>
<mask id="path-70-inside-33_1_14435" fill="white">
<path d="M-77.4026 665.161H22.3988V764.962H-77.4026V665.161Z"/>
</mask>
<path d="M22.3988 764.962V766.002H23.4384V764.962H22.3988ZM21.3592 665.161V764.962H23.4384V665.161H21.3592ZM22.3988 763.922H-77.4026V766.002H22.3988V763.922Z" fill="#D0D5DD" fill-opacity="0.32" mask="url(#path-70-inside-33_1_14435)"/>
<mask id="path-72-inside-34_1_14435" fill="white">
<path d="M22.3988 665.161H122.2V764.962H22.3988V665.161Z"/>
</mask>
<path d="M122.2 764.962V766.002H123.24V764.962H122.2ZM121.161 665.161V764.962H123.24V665.161H121.161ZM122.2 763.922H22.3988V766.002H122.2V763.922Z" fill="#D0D5DD" fill-opacity="0.32" mask="url(#path-72-inside-34_1_14435)"/>
<mask id="path-74-inside-35_1_14435" fill="white">
<path d="M122.2 665.161H222.002V764.962H122.2V665.161Z"/>
</mask>
<path d="M222.002 764.962V766.002H223.041V764.962H222.002ZM220.962 665.161V764.962H223.041V665.161H220.962ZM222.002 763.922H122.2V766.002H222.002V763.922Z" fill="#D0D5DD" fill-opacity="0.32" mask="url(#path-74-inside-35_1_14435)"/>
<mask id="path-76-inside-36_1_14435" fill="white">
<path d="M222.001 665.161H321.803V764.962H222.001V665.161Z"/>
</mask>
<path d="M321.803 764.962V766.002H322.842V764.962H321.803ZM320.763 665.161V764.962H322.842V665.161H320.763ZM321.803 763.922H222.001V766.002H321.803V763.922Z" fill="#D0D5DD" fill-opacity="0.32" mask="url(#path-76-inside-36_1_14435)"/>
<mask id="path-78-inside-37_1_14435" fill="white">
<path d="M321.803 665.161H421.604V764.962H321.803V665.161Z"/>
</mask>
<path d="M421.604 764.962V766.002H422.644V764.962H421.604ZM420.565 665.161V764.962H422.644V665.161H420.565ZM421.604 763.922H321.803V766.002H421.604V763.922Z" fill="#D0D5DD" fill-opacity="0.32" mask="url(#path-78-inside-37_1_14435)"/>
<mask id="path-80-inside-38_1_14435" fill="white">
<path d="M421.604 665.161H521.406V764.962H421.604V665.161Z"/>
</mask>
<path d="M421.604 665.161H521.406V764.962H421.604V665.161Z" fill="#F2F4F7" fill-opacity="0.1"/>
<path d="M521.406 764.962V766.002H522.445V764.962H521.406ZM520.366 665.161V764.962H522.445V665.161H520.366ZM521.406 763.922H421.604V766.002H521.406V763.922Z" fill="#D0D5DD" fill-opacity="0.32" mask="url(#path-80-inside-38_1_14435)"/>
<mask id="path-82-inside-39_1_14435" fill="white">
<path d="M521.406 665.161H621.207V764.962H521.406V665.161Z"/>
</mask>
<path d="M621.207 764.962V766.002H622.247V764.962H621.207ZM620.167 665.161V764.962H622.247V665.161H620.167ZM621.207 763.922H521.406V766.002H621.207V763.922Z" fill="#D0D5DD" fill-opacity="0.32" mask="url(#path-82-inside-39_1_14435)"/>
<mask id="path-84-inside-40_1_14435" fill="white">
<path d="M621.207 665.161H721.008V764.962H621.207V665.161Z"/>
</mask>
<path d="M721.008 764.962V766.002H722.048V764.962H721.008ZM719.969 665.161V764.962H722.048V665.161H719.969ZM721.008 763.922H621.207V766.002H721.008V763.922Z" fill="#D0D5DD" fill-opacity="0.32" mask="url(#path-84-inside-40_1_14435)"/>
<mask id="path-86-inside-41_1_14435" fill="white">
<path d="M721.008 665.161H820.81V764.962H721.008V665.161Z"/>
</mask>
<path d="M820.81 764.962V766.002H821.849V764.962H820.81ZM819.77 665.161V764.962H821.849V665.161H819.77ZM820.81 763.922H721.008V766.002H820.81V763.922Z" fill="#D0D5DD" fill-opacity="0.32" mask="url(#path-86-inside-41_1_14435)"/>
<mask id="path-88-inside-42_1_14435" fill="white">
<path d="M820.81 665.161H920.611V764.962H820.81V665.161Z"/>
</mask>
<path d="M820.81 665.161H920.611V764.962H820.81V665.161Z" fill="#F2F4F7" fill-opacity="0.1"/>
<path d="M920.611 764.962V766.002H921.651V764.962H920.611ZM919.571 665.161V764.962H921.651V665.161H919.571ZM920.611 763.922H820.81V766.002H920.611V763.922Z" fill="#D0D5DD" fill-opacity="0.32" mask="url(#path-88-inside-42_1_14435)"/>
<mask id="path-90-inside-43_1_14435" fill="white">
<path d="M920.611 665.161H1020.41V764.962H920.611V665.161Z"/>
</mask>
<path d="M1020.41 764.962V766.002H1021.45V764.962H1020.41ZM1019.37 665.161V764.962H1021.45V665.161H1019.37ZM1020.41 763.922H920.611V766.002H1020.41V763.922Z" fill="#D0D5DD" fill-opacity="0.32" mask="url(#path-90-inside-43_1_14435)"/>
<mask id="path-92-inside-44_1_14435" fill="white">
<path d="M1020.41 665.161H1120.21V764.962H1020.41V665.161Z"/>
</mask>
<path d="M1120.21 764.962V766.002H1121.25V764.962H1120.21ZM1119.17 665.161V764.962H1121.25V665.161H1119.17ZM1120.21 763.922H1020.41V766.002H1120.21V763.922Z" fill="#D0D5DD" fill-opacity="0.32" mask="url(#path-92-inside-44_1_14435)"/>
<mask id="path-94-inside-45_1_14435" fill="white">
<path d="M1120.21 665.161H1220.02V764.962H1120.21V665.161Z"/>
</mask>
<path d="M1220.02 764.962V766.002H1221.05V764.962H1220.02ZM1218.98 665.161V764.962H1221.05V665.161H1218.98ZM1220.02 763.922H1120.21V766.002H1220.02V763.922Z" fill="#D0D5DD" fill-opacity="0.32" mask="url(#path-94-inside-45_1_14435)"/>
<mask id="path-96-inside-46_1_14435" fill="white">
<path d="M1220.02 665.161H1319.82V764.962H1220.02V665.161Z"/>
</mask>
<path d="M1319.82 764.962V766.002H1320.86V764.962H1319.82ZM1318.78 665.161V764.962H1320.86V665.161H1318.78ZM1319.82 763.922H1220.02V766.002H1319.82V763.922Z" fill="#D0D5DD" fill-opacity="0.32" mask="url(#path-96-inside-46_1_14435)"/>
<mask id="path-98-inside-47_1_14435" fill="white">
<path d="M1319.82 665.161H1419.62V764.962H1319.82V665.161Z"/>
</mask>
<path d="M1419.62 764.962V766.002H1420.66V764.962H1419.62ZM1418.58 665.161V764.962H1420.66V665.161H1418.58ZM1419.62 763.922H1319.82V766.002H1419.62V763.922Z" fill="#D0D5DD" fill-opacity="0.32" mask="url(#path-98-inside-47_1_14435)"/>
<mask id="path-100-inside-48_1_14435" fill="white">
<path d="M1419.62 665.161H1519.42V764.962H1419.62V665.161Z"/>
</mask>
<path d="M1519.42 764.962V766.002H1520.46V764.962H1519.42ZM1518.38 665.161V764.962H1520.46V665.161H1518.38ZM1519.42 763.922H1419.62V766.002H1519.42V763.922Z" fill="#D0D5DD" fill-opacity="0.32" mask="url(#path-100-inside-48_1_14435)"/>
<mask id="path-102-inside-49_1_14435" fill="white">
<path d="M-77.4026 764.962H22.3988V864.763H-77.4026V764.962Z"/>
</mask>
<path d="M-77.4026 764.962H22.3988V864.763H-77.4026V764.962Z" fill="#F2F4F7" fill-opacity="0.1"/>
<path d="M22.3988 864.763V865.803H23.4384V864.763H22.3988ZM21.3592 764.962V864.763H23.4384V764.962H21.3592ZM22.3988 863.724H-77.4026V865.803H22.3988V863.724Z" fill="#D0D5DD" fill-opacity="0.32" mask="url(#path-102-inside-49_1_14435)"/>
<mask id="path-104-inside-50_1_14435" fill="white">
<path d="M22.3988 764.962H122.2V864.763H22.3988V764.962Z"/>
</mask>
<path d="M122.2 864.763V865.803H123.24V864.763H122.2ZM121.161 764.962V864.763H123.24V764.962H121.161ZM122.2 863.724H22.3988V865.803H122.2V863.724Z" fill="#D0D5DD" fill-opacity="0.32" mask="url(#path-104-inside-50_1_14435)"/>
<mask id="path-106-inside-51_1_14435" fill="white">
<path d="M122.2 764.962H222.002V864.763H122.2V764.962Z"/>
</mask>
<path d="M222.002 864.763V865.803H223.041V864.763H222.002ZM220.962 764.962V864.763H223.041V764.962H220.962ZM222.002 863.724H122.2V865.803H222.002V863.724Z" fill="#D0D5DD" fill-opacity="0.32" mask="url(#path-106-inside-51_1_14435)"/>
<mask id="path-108-inside-52_1_14435" fill="white">
<path d="M222.001 764.962H321.803V864.763H222.001V764.962Z"/>
</mask>
<path d="M321.803 864.763V865.803H322.842V864.763H321.803ZM320.763 764.962V864.763H322.842V764.962H320.763ZM321.803 863.724H222.001V865.803H321.803V863.724Z" fill="#D0D5DD" fill-opacity="0.32" mask="url(#path-108-inside-52_1_14435)"/>
<mask id="path-110-inside-53_1_14435" fill="white">
<path d="M321.803 764.962H421.604V864.763H321.803V764.962Z"/>
</mask>
<path d="M421.604 864.763V865.803H422.644V864.763H421.604ZM420.565 764.962V864.763H422.644V764.962H420.565ZM421.604 863.724H321.803V865.803H421.604V863.724Z" fill="#D0D5DD" fill-opacity="0.32" mask="url(#path-110-inside-53_1_14435)"/>
<mask id="path-112-inside-54_1_14435" fill="white">
<path d="M421.604 764.962H521.406V864.763H421.604V764.962Z"/>
</mask>
<path d="M521.406 864.763V865.803H522.445V864.763H521.406ZM520.366 764.962V864.763H522.445V764.962H520.366ZM521.406 863.724H421.604V865.803H521.406V863.724Z" fill="#D0D5DD" fill-opacity="0.32" mask="url(#path-112-inside-54_1_14435)"/>
<mask id="path-114-inside-55_1_14435" fill="white">
<path d="M521.406 764.962H621.207V864.763H521.406V764.962Z"/>
</mask>
<path d="M621.207 864.763V865.803H622.247V864.763H621.207ZM620.167 764.962V864.763H622.247V764.962H620.167ZM621.207 863.724H521.406V865.803H621.207V863.724Z" fill="#D0D5DD" fill-opacity="0.32" mask="url(#path-114-inside-55_1_14435)"/>
<mask id="path-116-inside-56_1_14435" fill="white">
<path d="M621.207 764.962H721.008V864.763H621.207V764.962Z"/>
</mask>
<path d="M721.008 864.763V865.803H722.048V864.763H721.008ZM719.969 764.962V864.763H722.048V764.962H719.969ZM721.008 863.724H621.207V865.803H721.008V863.724Z" fill="#D0D5DD" fill-opacity="0.32" mask="url(#path-116-inside-56_1_14435)"/>
<mask id="path-118-inside-57_1_14435" fill="white">
<path d="M721.008 764.962H820.81V864.763H721.008V764.962Z"/>
</mask>
<path d="M820.81 864.763V865.803H821.849V864.763H820.81ZM819.77 764.962V864.763H821.849V764.962H819.77ZM820.81 863.724H721.008V865.803H820.81V863.724Z" fill="#D0D5DD" fill-opacity="0.32" mask="url(#path-118-inside-57_1_14435)"/>
<mask id="path-120-inside-58_1_14435" fill="white">
<path d="M820.81 764.962H920.611V864.763H820.81V764.962Z"/>
</mask>
<path d="M920.611 864.763V865.803H921.651V864.763H920.611ZM919.571 764.962V864.763H921.651V764.962H919.571ZM920.611 863.724H820.81V865.803H920.611V863.724Z" fill="#D0D5DD" fill-opacity="0.32" mask="url(#path-120-inside-58_1_14435)"/>
<mask id="path-122-inside-59_1_14435" fill="white">
<path d="M920.611 764.962H1020.41V864.763H920.611V764.962Z"/>
</mask>
<path d="M1020.41 864.763V865.803H1021.45V864.763H1020.41ZM1019.37 764.962V864.763H1021.45V764.962H1019.37ZM1020.41 863.724H920.611V865.803H1020.41V863.724Z" fill="#D0D5DD" fill-opacity="0.32" mask="url(#path-122-inside-59_1_14435)"/>
<mask id="path-124-inside-60_1_14435" fill="white">
<path d="M1020.41 764.962H1120.21V864.763H1020.41V764.962Z"/>
</mask>
<path d="M1120.21 864.763V865.803H1121.25V864.763H1120.21ZM1119.17 764.962V864.763H1121.25V764.962H1119.17ZM1120.21 863.724H1020.41V865.803H1120.21V863.724Z" fill="#D0D5DD" fill-opacity="0.32" mask="url(#path-124-inside-60_1_14435)"/>
<mask id="path-126-inside-61_1_14435" fill="white">
<path d="M1120.21 764.962H1220.02V864.763H1120.21V764.962Z"/>
</mask>
<path d="M1120.21 764.962H1220.02V864.763H1120.21V764.962Z" fill="#F2F4F7" fill-opacity="0.1"/>
<path d="M1220.02 864.763V865.803H1221.05V864.763H1220.02ZM1218.98 764.962V864.763H1221.05V764.962H1218.98ZM1220.02 863.724H1120.21V865.803H1220.02V863.724Z" fill="#D0D5DD" fill-opacity="0.32" mask="url(#path-126-inside-61_1_14435)"/>
<mask id="path-128-inside-62_1_14435" fill="white">
<path d="M1220.02 764.962H1319.82V864.763H1220.02V764.962Z"/>
</mask>
<path d="M1319.82 864.763V865.803H1320.86V864.763H1319.82ZM1318.78 764.962V864.763H1320.86V764.962H1318.78ZM1319.82 863.724H1220.02V865.803H1319.82V863.724Z" fill="#D0D5DD" fill-opacity="0.32" mask="url(#path-128-inside-62_1_14435)"/>
<mask id="path-130-inside-63_1_14435" fill="white">
<path d="M1319.82 764.962H1419.62V864.763H1319.82V764.962Z"/>
</mask>
<path d="M1419.62 864.763V865.803H1420.66V864.763H1419.62ZM1418.58 764.962V864.763H1420.66V764.962H1418.58ZM1419.62 863.724H1319.82V865.803H1419.62V863.724Z" fill="#D0D5DD" fill-opacity="0.32" mask="url(#path-130-inside-63_1_14435)"/>
<mask id="path-132-inside-64_1_14435" fill="white">
<path d="M1419.62 764.962H1519.42V864.763H1419.62V764.962Z"/>
</mask>
<path d="M1519.42 864.763V865.803H1520.46V864.763H1519.42ZM1518.38 764.962V864.763H1520.46V764.962H1518.38ZM1519.42 863.724H1419.62V865.803H1519.42V863.724Z" fill="#D0D5DD" fill-opacity="0.32" mask="url(#path-132-inside-64_1_14435)"/>
<mask id="path-134-inside-65_1_14435" fill="white">
<path d="M-77.4026 864.763H22.3988V964.564H-77.4026V864.763Z"/>
</mask>
<path d="M22.3988 964.564V965.604H23.4384V964.564H22.3988ZM21.3592 864.763V964.564H23.4384V864.763H21.3592ZM22.3988 963.524H-77.4026V965.604H22.3988V963.524Z" fill="#D0D5DD" fill-opacity="0.32" mask="url(#path-134-inside-65_1_14435)"/>
<mask id="path-136-inside-66_1_14435" fill="white">
<path d="M22.3988 864.763H122.2V964.564H22.3988V864.763Z"/>
</mask>
<path d="M122.2 964.564V965.604H123.24V964.564H122.2ZM121.161 864.763V964.564H123.24V864.763H121.161ZM122.2 963.524H22.3988V965.604H122.2V963.524Z" fill="#D0D5DD" fill-opacity="0.32" mask="url(#path-136-inside-66_1_14435)"/>
<mask id="path-138-inside-67_1_14435" fill="white">
<path d="M122.2 864.763H222.002V964.564H122.2V864.763Z"/>
</mask>
<path d="M222.002 964.564V965.604H223.041V964.564H222.002ZM220.962 864.763V964.564H223.041V864.763H220.962ZM222.002 963.524H122.2V965.604H222.002V963.524Z" fill="#D0D5DD" fill-opacity="0.32" mask="url(#path-138-inside-67_1_14435)"/>
<mask id="path-140-inside-68_1_14435" fill="white">
<path d="M222.001 864.763H321.803V964.564H222.001V864.763Z"/>
</mask>
<path d="M321.803 964.564V965.604H322.842V964.564H321.803ZM320.763 864.763V964.564H322.842V864.763H320.763ZM321.803 963.524H222.001V965.604H321.803V963.524Z" fill="#D0D5DD" fill-opacity="0.32" mask="url(#path-140-inside-68_1_14435)"/>
<mask id="path-142-inside-69_1_14435" fill="white">
<path d="M321.803 864.763H421.604V964.564H321.803V864.763Z"/>
</mask>
<path d="M421.604 964.564V965.604H422.644V964.564H421.604ZM420.565 864.763V964.564H422.644V864.763H420.565ZM421.604 963.524H321.803V965.604H421.604V963.524Z" fill="#D0D5DD" fill-opacity="0.32" mask="url(#path-142-inside-69_1_14435)"/>
<mask id="path-144-inside-70_1_14435" fill="white">
<path d="M421.604 864.763H521.406V964.564H421.604V864.763Z"/>
</mask>
<path d="M521.406 964.564V965.604H522.445V964.564H521.406ZM520.366 864.763V964.564H522.445V864.763H520.366ZM521.406 963.524H421.604V965.604H521.406V963.524Z" fill="#D0D5DD" fill-opacity="0.32" mask="url(#path-144-inside-70_1_14435)"/>
<mask id="path-146-inside-71_1_14435" fill="white">
<path d="M521.406 864.763H621.207V964.564H521.406V864.763Z"/>
</mask>
<path d="M521.406 864.763H621.207V964.564H521.406V864.763Z" fill="#F2F4F7" fill-opacity="0.1"/>
<path d="M621.207 964.564V965.604H622.247V964.564H621.207ZM620.167 864.763V964.564H622.247V864.763H620.167ZM621.207 963.524H521.406V965.604H621.207V963.524Z" fill="#D0D5DD" fill-opacity="0.32" mask="url(#path-146-inside-71_1_14435)"/>
<mask id="path-148-inside-72_1_14435" fill="white">
<path d="M621.207 864.763H721.008V964.564H621.207V864.763Z"/>
</mask>
<path d="M721.008 964.564V965.604H722.048V964.564H721.008ZM719.969 864.763V964.564H722.048V864.763H719.969ZM721.008 963.524H621.207V965.604H721.008V963.524Z" fill="#D0D5DD" fill-opacity="0.32" mask="url(#path-148-inside-72_1_14435)"/>
<mask id="path-150-inside-73_1_14435" fill="white">
<path d="M721.008 864.763H820.81V964.564H721.008V864.763Z"/>
</mask>
<path d="M820.81 964.564V965.604H821.849V964.564H820.81ZM819.77 864.763V964.564H821.849V864.763H819.77ZM820.81 963.524H721.008V965.604H820.81V963.524Z" fill="#D0D5DD" fill-opacity="0.32" mask="url(#path-150-inside-73_1_14435)"/>
<mask id="path-152-inside-74_1_14435" fill="white">
<path d="M820.81 864.763H920.611V964.564H820.81V864.763Z"/>
</mask>
<path d="M920.611 964.564V965.604H921.651V964.564H920.611ZM919.571 864.763V964.564H921.651V864.763H919.571ZM920.611 963.524H820.81V965.604H920.611V963.524Z" fill="#D0D5DD" fill-opacity="0.32" mask="url(#path-152-inside-74_1_14435)"/>
<mask id="path-154-inside-75_1_14435" fill="white">
<path d="M920.611 864.763H1020.41V964.564H920.611V864.763Z"/>
</mask>
<path d="M1020.41 964.564V965.604H1021.45V964.564H1020.41ZM1019.37 864.763V964.564H1021.45V864.763H1019.37ZM1020.41 963.524H920.611V965.604H1020.41V963.524Z" fill="#D0D5DD" fill-opacity="0.32" mask="url(#path-154-inside-75_1_14435)"/>
<mask id="path-156-inside-76_1_14435" fill="white">
<path d="M1020.41 864.763H1120.21V964.564H1020.41V864.763Z"/>
</mask>
<path d="M1120.21 964.564V965.604H1121.25V964.564H1120.21ZM1119.17 864.763V964.564H1121.25V864.763H1119.17ZM1120.21 963.524H1020.41V965.604H1120.21V963.524Z" fill="#D0D5DD" fill-opacity="0.32" mask="url(#path-156-inside-76_1_14435)"/>
<mask id="path-158-inside-77_1_14435" fill="white">
<path d="M1120.21 864.763H1220.02V964.564H1120.21V864.763Z"/>
</mask>
<path d="M1220.02 964.564V965.604H1221.05V964.564H1220.02ZM1218.98 864.763V964.564H1221.05V864.763H1218.98ZM1220.02 963.524H1120.21V965.604H1220.02V963.524Z" fill="#D0D5DD" fill-opacity="0.32" mask="url(#path-158-inside-77_1_14435)"/>
<mask id="path-160-inside-78_1_14435" fill="white">
<path d="M1220.02 864.763H1319.82V964.564H1220.02V864.763Z"/>
</mask>
<path d="M1319.82 964.564V965.604H1320.86V964.564H1319.82ZM1318.78 864.763V964.564H1320.86V864.763H1318.78ZM1319.82 963.524H1220.02V965.604H1319.82V963.524Z" fill="#D0D5DD" fill-opacity="0.32" mask="url(#path-160-inside-78_1_14435)"/>
<mask id="path-162-inside-79_1_14435" fill="white">
<path d="M1319.82 864.763H1419.62V964.564H1319.82V864.763Z"/>
</mask>
<path d="M1419.62 964.564V965.604H1420.66V964.564H1419.62ZM1418.58 864.763V964.564H1420.66V864.763H1418.58ZM1419.62 963.524H1319.82V965.604H1419.62V963.524Z" fill="#D0D5DD" fill-opacity="0.32" mask="url(#path-162-inside-79_1_14435)"/>
<mask id="path-164-inside-80_1_14435" fill="white">
<path d="M1419.62 864.763H1519.42V964.564H1419.62V864.763Z"/>
</mask>
<path d="M1519.42 964.564V965.604H1520.46V964.564H1519.42ZM1518.38 864.763V964.564H1520.46V864.763H1518.38ZM1519.42 963.524H1419.62V965.604H1519.42V963.524Z" fill="#D0D5DD" fill-opacity="0.32" mask="url(#path-164-inside-80_1_14435)"/>
<mask id="path-166-inside-81_1_14435" fill="white">
<path d="M-77.4026 964.564H22.3988V1064.37H-77.4026V964.564Z"/>
</mask>
<path d="M22.3988 1064.37V1065.41H23.4384V1064.37H22.3988ZM21.3592 964.564V1064.37H23.4384V964.564H21.3592ZM22.3988 1063.33H-77.4026V1065.41H22.3988V1063.33Z" fill="#D0D5DD" fill-opacity="0.32" mask="url(#path-166-inside-81_1_14435)"/>
<mask id="path-168-inside-82_1_14435" fill="white">
<path d="M22.3988 964.564H122.2V1064.37H22.3988V964.564Z"/>
</mask>
<path d="M122.2 1064.37V1065.41H123.24V1064.37H122.2ZM121.161 964.564V1064.37H123.24V964.564H121.161ZM122.2 1063.33H22.3988V1065.41H122.2V1063.33Z" fill="#D0D5DD" fill-opacity="0.32" mask="url(#path-168-inside-82_1_14435)"/>
<mask id="path-170-inside-83_1_14435" fill="white">
<path d="M122.2 964.564H222.002V1064.37H122.2V964.564Z"/>
</mask>
<path d="M222.002 1064.37V1065.41H223.041V1064.37H222.002ZM220.962 964.564V1064.37H223.041V964.564H220.962ZM222.002 1063.33H122.2V1065.41H222.002V1063.33Z" fill="#D0D5DD" fill-opacity="0.32" mask="url(#path-170-inside-83_1_14435)"/>
<mask id="path-172-inside-84_1_14435" fill="white">
<path d="M222.001 964.564H321.803V1064.37H222.001V964.564Z"/>
</mask>
<path d="M222.001 964.564H321.803V1064.37H222.001V964.564Z" fill="#F2F4F7" fill-opacity="0.1"/>
<path d="M321.803 1064.37V1065.41H322.842V1064.37H321.803ZM320.763 964.564V1064.37H322.842V964.564H320.763ZM321.803 1063.33H222.001V1065.41H321.803V1063.33Z" fill="#D0D5DD" fill-opacity="0.32" mask="url(#path-172-inside-84_1_14435)"/>
<mask id="path-174-inside-85_1_14435" fill="white">
<path d="M321.803 964.564H421.604V1064.37H321.803V964.564Z"/>
</mask>
<path d="M421.604 1064.37V1065.41H422.644V1064.37H421.604ZM420.565 964.564V1064.37H422.644V964.564H420.565ZM421.604 1063.33H321.803V1065.41H421.604V1063.33Z" fill="#D0D5DD" fill-opacity="0.32" mask="url(#path-174-inside-85_1_14435)"/>
<mask id="path-176-inside-86_1_14435" fill="white">
<path d="M421.604 964.564H521.406V1064.37H421.604V964.564Z"/>
</mask>
<path d="M521.406 1064.37V1065.41H522.445V1064.37H521.406ZM520.366 964.564V1064.37H522.445V964.564H520.366ZM521.406 1063.33H421.604V1065.41H521.406V1063.33Z" fill="#D0D5DD" fill-opacity="0.32" mask="url(#path-176-inside-86_1_14435)"/>
<mask id="path-178-inside-87_1_14435" fill="white">
<path d="M521.406 964.564H621.207V1064.37H521.406V964.564Z"/>
</mask>
<path d="M621.207 1064.37V1065.41H622.247V1064.37H621.207ZM620.167 964.564V1064.37H622.247V964.564H620.167ZM621.207 1063.33H521.406V1065.41H621.207V1063.33Z" fill="#D0D5DD" fill-opacity="0.32" mask="url(#path-178-inside-87_1_14435)"/>
<mask id="path-180-inside-88_1_14435" fill="white">
<path d="M621.207 964.564H721.008V1064.37H621.207V964.564Z"/>
</mask>
<path d="M721.008 1064.37V1065.41H722.048V1064.37H721.008ZM719.969 964.564V1064.37H722.048V964.564H719.969ZM721.008 1063.33H621.207V1065.41H721.008V1063.33Z" fill="#D0D5DD" fill-opacity="0.32" mask="url(#path-180-inside-88_1_14435)"/>
<mask id="path-182-inside-89_1_14435" fill="white">
<path d="M721.008 964.564H820.81V1064.37H721.008V964.564Z"/>
</mask>
<path d="M820.81 1064.37V1065.41H821.849V1064.37H820.81ZM819.77 964.564V1064.37H821.849V964.564H819.77ZM820.81 1063.33H721.008V1065.41H820.81V1063.33Z" fill="#D0D5DD" fill-opacity="0.32" mask="url(#path-182-inside-89_1_14435)"/>
<mask id="path-184-inside-90_1_14435" fill="white">
<path d="M820.81 964.564H920.611V1064.37H820.81V964.564Z"/>
</mask>
<path d="M820.81 964.564H920.611V1064.37H820.81V964.564Z" fill="#F2F4F7" fill-opacity="0.1"/>
<path d="M920.611 1064.37V1065.41H921.651V1064.37H920.611ZM919.571 964.564V1064.37H921.651V964.564H919.571ZM920.611 1063.33H820.81V1065.41H920.611V1063.33Z" fill="#D0D5DD" fill-opacity="0.32" mask="url(#path-184-inside-90_1_14435)"/>
<mask id="path-186-inside-91_1_14435" fill="white">
<path d="M920.611 964.564H1020.41V1064.37H920.611V964.564Z"/>
</mask>
<path d="M1020.41 1064.37V1065.41H1021.45V1064.37H1020.41ZM1019.37 964.564V1064.37H1021.45V964.564H1019.37ZM1020.41 1063.33H920.611V1065.41H1020.41V1063.33Z" fill="#D0D5DD" fill-opacity="0.32" mask="url(#path-186-inside-91_1_14435)"/>
<mask id="path-188-inside-92_1_14435" fill="white">
<path d="M1020.41 964.564H1120.21V1064.37H1020.41V964.564Z"/>
</mask>
<path d="M1120.21 1064.37V1065.41H1121.25V1064.37H1120.21ZM1119.17 964.564V1064.37H1121.25V964.564H1119.17ZM1120.21 1063.33H1020.41V1065.41H1120.21V1063.33Z" fill="#D0D5DD" fill-opacity="0.32" mask="url(#path-188-inside-92_1_14435)"/>
<mask id="path-190-inside-93_1_14435" fill="white">
<path d="M1120.21 964.564H1220.02V1064.37H1120.21V964.564Z"/>
</mask>
<path d="M1220.02 1064.37V1065.41H1221.05V1064.37H1220.02ZM1218.98 964.564V1064.37H1221.05V964.564H1218.98ZM1220.02 1063.33H1120.21V1065.41H1220.02V1063.33Z" fill="#D0D5DD" fill-opacity="0.32" mask="url(#path-190-inside-93_1_14435)"/>
<mask id="path-192-inside-94_1_14435" fill="white">
<path d="M1220.02 964.564H1319.82V1064.37H1220.02V964.564Z"/>
</mask>
<path d="M1319.82 1064.37V1065.41H1320.86V1064.37H1319.82ZM1318.78 964.564V1064.37H1320.86V964.564H1318.78ZM1319.82 1063.33H1220.02V1065.41H1319.82V1063.33Z" fill="#D0D5DD" fill-opacity="0.32" mask="url(#path-192-inside-94_1_14435)"/>
<mask id="path-194-inside-95_1_14435" fill="white">
<path d="M1319.82 964.564H1419.62V1064.37H1319.82V964.564Z"/>
</mask>
<path d="M1419.62 1064.37V1065.41H1420.66V1064.37H1419.62ZM1418.58 964.564V1064.37H1420.66V964.564H1418.58ZM1419.62 1063.33H1319.82V1065.41H1419.62V1063.33Z" fill="#D0D5DD" fill-opacity="0.32" mask="url(#path-194-inside-95_1_14435)"/>
<mask id="path-196-inside-96_1_14435" fill="white">
<path d="M1419.62 964.564H1519.42V1064.37H1419.62V964.564Z"/>
</mask>
<path d="M1519.42 1064.37V1065.41H1520.46V1064.37H1519.42ZM1518.38 964.564V1064.37H1520.46V964.564H1518.38ZM1519.42 1063.33H1419.62V1065.41H1519.42V1063.33Z" fill="#D0D5DD" fill-opacity="0.32" mask="url(#path-196-inside-96_1_14435)"/>
</g>
<rect x="-276.486" y="466.077" width="1994.99" height="1495.98" stroke="#D0D5DD" stroke-opacity="0.32" stroke-width="1.0396"/>
</g>
</g>
<defs>
<filter id="filter0_f_1_14435" x="-416" y="798" width="1153" height="1153" filterUnits="userSpaceOnUse" color-interpolation-filters="sRGB">
<feFlood flood-opacity="0" result="BackgroundImageFix"/>
<feBlend mode="normal" in="SourceGraphic" in2="BackgroundImageFix" result="shape"/>
<feGaussianBlur stdDeviation="200" result="effect1_foregroundBlur_1_14435"/>
</filter>
<filter id="filter1_f_1_14435" x="-106" y="288" width="1153" height="1153" filterUnits="userSpaceOnUse" color-interpolation-filters="sRGB">
<feFlood flood-opacity="0" result="BackgroundImageFix"/>
<feBlend mode="normal" in="SourceGraphic" in2="BackgroundImageFix" result="shape"/>
<feGaussianBlur stdDeviation="200" result="effect1_foregroundBlur_1_14435"/>
</filter>
<filter id="filter2_f_1_14435" x="783.512" y="0" width="1049.82" height="1049.82" filterUnits="userSpaceOnUse" color-interpolation-filters="sRGB">
<feFlood flood-opacity="0" result="BackgroundImageFix"/>
<feBlend mode="normal" in="SourceGraphic" in2="BackgroundImageFix" result="shape"/>
<feGaussianBlur stdDeviation="200" result="effect1_foregroundBlur_1_14435"/>
</filter>
<radialGradient id="paint0_radial_1_14435" cx="0" cy="0" r="1" gradientUnits="userSpaceOnUse" gradientTransform="translate(748.51 -0.000148344) rotate(90) scale(1244.4 781.349)">
<stop/>
<stop offset="0.953125" stop-opacity="0"/>
</radialGradient>
<clipPath id="clip0_1_14435">
<rect width="1492.42" height="1020.88" fill="white" transform="translate(-25.4229 465.558)"/>
</clipPath>
<clipPath id="clip1_1_14435">
<rect x="-277.005" y="465.558" width="1996.03" height="1497.02" fill="white"/>
</clipPath>
</defs>
</svg>
