<svg width="1440" height="1041" viewBox="0 0 1440 1041" fill="none" xmlns="http://www.w3.org/2000/svg">
<g opacity="0.5" filter="url(#filter0_f_1_3246)">
<circle cx="141.5" cy="904.5" r="176.5" fill="#D2F801" fill-opacity="0.34"/>
</g>
<g opacity="0.5" filter="url(#filter1_f_1_3246)">
<circle cx="451.5" cy="394.5" r="176.5" fill="#D2F801" fill-opacity="0.34"/>
</g>
<g opacity="0.5" filter="url(#filter2_f_1_3246)">
<circle cx="1289.42" cy="54.9079" r="124.908" fill="#D2F801"/>
</g>
<g opacity="0.5" clip-path="url(#clip0_1_3246)">
<mask id="mask0_1_3246" style="mask-type:alpha" maskUnits="userSpaceOnUse" x="0" y="99" width="1440" height="1441">
<rect width="1440" height="1197" transform="translate(0 99.0054)" fill="url(#paint0_radial_1_3246)"/>
</mask>
<g mask="url(#mask0_1_3246)">
<g clip-path="url(#clip1_1_3246)">
<mask id="path-6-inside-1_1_3246" fill="white">
<path d="M-48 99.0054H48V195.005H-48V99.0054Z"/>
</mask>
<path d="M48 195.005V196.005H49V195.005H48ZM47 99.0054V195.005H49V99.0054H47ZM48 194.005H-48V196.005H48V194.005Z" fill="#D0D5DD" fill-opacity="0.32" mask="url(#path-6-inside-1_1_3246)"/>
<mask id="path-8-inside-2_1_3246" fill="white">
<path d="M48 99.0054H144V195.005H48V99.0054Z"/>
</mask>
<path d="M144 195.005V196.005H145V195.005H144ZM143 99.0054V195.005H145V99.0054H143ZM144 194.005H48V196.005H144V194.005Z" fill="#D0D5DD" fill-opacity="0.32" mask="url(#path-8-inside-2_1_3246)"/>
<mask id="path-10-inside-3_1_3246" fill="white">
<path d="M144 99.0054H240V195.005H144V99.0054Z"/>
</mask>
<path d="M240 195.005V196.005H241V195.005H240ZM239 99.0054V195.005H241V99.0054H239ZM240 194.005H144V196.005H240V194.005Z" fill="#D0D5DD" fill-opacity="0.32" mask="url(#path-10-inside-3_1_3246)"/>
<mask id="path-12-inside-4_1_3246" fill="white">
<path d="M240 99.0054H336V195.005H240V99.0054Z"/>
</mask>
<path d="M336 195.005V196.005H337V195.005H336ZM335 99.0054V195.005H337V99.0054H335ZM336 194.005H240V196.005H336V194.005Z" fill="#D0D5DD" fill-opacity="0.32" mask="url(#path-12-inside-4_1_3246)"/>
<mask id="path-14-inside-5_1_3246" fill="white">
<path d="M336 99.0054H432V195.005H336V99.0054Z"/>
</mask>
<path d="M432 195.005V196.005H433V195.005H432ZM431 99.0054V195.005H433V99.0054H431ZM432 194.005H336V196.005H432V194.005Z" fill="#D0D5DD" fill-opacity="0.32" mask="url(#path-14-inside-5_1_3246)"/>
<mask id="path-16-inside-6_1_3246" fill="white">
<path d="M432 99.0054H528V195.005H432V99.0054Z"/>
</mask>
<path d="M528 195.005V196.005H529V195.005H528ZM527 99.0054V195.005H529V99.0054H527ZM528 194.005H432V196.005H528V194.005Z" fill="#D0D5DD" fill-opacity="0.32" mask="url(#path-16-inside-6_1_3246)"/>
<mask id="path-18-inside-7_1_3246" fill="white">
<path d="M528 99.0054H624V195.005H528V99.0054Z"/>
</mask>
<path d="M624 195.005V196.005H625V195.005H624ZM623 99.0054V195.005H625V99.0054H623ZM624 194.005H528V196.005H624V194.005Z" fill="#D0D5DD" fill-opacity="0.32" mask="url(#path-18-inside-7_1_3246)"/>
<mask id="path-20-inside-8_1_3246" fill="white">
<path d="M624 99.0054H720V195.005H624V99.0054Z"/>
</mask>
<path d="M720 195.005V196.005H721V195.005H720ZM719 99.0054V195.005H721V99.0054H719ZM720 194.005H624V196.005H720V194.005Z" fill="#D0D5DD" fill-opacity="0.32" mask="url(#path-20-inside-8_1_3246)"/>
<mask id="path-22-inside-9_1_3246" fill="white">
<path d="M720 99.0054H816V195.005H720V99.0054Z"/>
</mask>
<path d="M816 195.005V196.005H817V195.005H816ZM815 99.0054V195.005H817V99.0054H815ZM816 194.005H720V196.005H816V194.005Z" fill="#D0D5DD" fill-opacity="0.32" mask="url(#path-22-inside-9_1_3246)"/>
<mask id="path-24-inside-10_1_3246" fill="white">
<path d="M816 99.0054H912V195.005H816V99.0054Z"/>
</mask>
<path d="M912 195.005V196.005H913V195.005H912ZM911 99.0054V195.005H913V99.0054H911ZM912 194.005H816V196.005H912V194.005Z" fill="#D0D5DD" fill-opacity="0.32" mask="url(#path-24-inside-10_1_3246)"/>
<mask id="path-26-inside-11_1_3246" fill="white">
<path d="M912 99.0054H1008V195.005H912V99.0054Z"/>
</mask>
<path d="M1008 195.005V196.005H1009V195.005H1008ZM1007 99.0054V195.005H1009V99.0054H1007ZM1008 194.005H912V196.005H1008V194.005Z" fill="#D0D5DD" fill-opacity="0.32" mask="url(#path-26-inside-11_1_3246)"/>
<mask id="path-28-inside-12_1_3246" fill="white">
<path d="M1008 99.0054H1104V195.005H1008V99.0054Z"/>
</mask>
<path d="M1104 195.005V196.005H1105V195.005H1104ZM1103 99.0054V195.005H1105V99.0054H1103ZM1104 194.005H1008V196.005H1104V194.005Z" fill="#D0D5DD" fill-opacity="0.32" mask="url(#path-28-inside-12_1_3246)"/>
<mask id="path-30-inside-13_1_3246" fill="white">
<path d="M1104 99.0054H1200V195.005H1104V99.0054Z"/>
</mask>
<path d="M1200 195.005V196.005H1201V195.005H1200ZM1199 99.0054V195.005H1201V99.0054H1199ZM1200 194.005H1104V196.005H1200V194.005Z" fill="#D0D5DD" fill-opacity="0.32" mask="url(#path-30-inside-13_1_3246)"/>
<mask id="path-32-inside-14_1_3246" fill="white">
<path d="M1200 99.0054H1296V195.005H1200V99.0054Z"/>
</mask>
<path d="M1296 195.005V196.005H1297V195.005H1296ZM1295 99.0054V195.005H1297V99.0054H1295ZM1296 194.005H1200V196.005H1296V194.005Z" fill="#D0D5DD" fill-opacity="0.32" mask="url(#path-32-inside-14_1_3246)"/>
<mask id="path-34-inside-15_1_3246" fill="white">
<path d="M1296 99.0054H1392V195.005H1296V99.0054Z"/>
</mask>
<path d="M1392 195.005V196.005H1393V195.005H1392ZM1391 99.0054V195.005H1393V99.0054H1391ZM1392 194.005H1296V196.005H1392V194.005Z" fill="#D0D5DD" fill-opacity="0.32" mask="url(#path-34-inside-15_1_3246)"/>
<mask id="path-36-inside-16_1_3246" fill="white">
<path d="M1392 99.0054H1488V195.005H1392V99.0054Z"/>
</mask>
<path d="M1488 195.005V196.005H1489V195.005H1488ZM1487 99.0054V195.005H1489V99.0054H1487ZM1488 194.005H1392V196.005H1488V194.005Z" fill="#D0D5DD" fill-opacity="0.32" mask="url(#path-36-inside-16_1_3246)"/>
<mask id="path-38-inside-17_1_3246" fill="white">
<path d="M-48 195.005H48V291.005H-48V195.005Z"/>
</mask>
<path d="M48 291.005V292.005H49V291.005H48ZM47 195.005V291.005H49V195.005H47ZM48 290.005H-48V292.005H48V290.005Z" fill="#D0D5DD" fill-opacity="0.32" mask="url(#path-38-inside-17_1_3246)"/>
<mask id="path-40-inside-18_1_3246" fill="white">
<path d="M48 195.005H144V291.005H48V195.005Z"/>
</mask>
<path d="M144 291.005V292.005H145V291.005H144ZM143 195.005V291.005H145V195.005H143ZM144 290.005H48V292.005H144V290.005Z" fill="#D0D5DD" fill-opacity="0.32" mask="url(#path-40-inside-18_1_3246)"/>
<mask id="path-42-inside-19_1_3246" fill="white">
<path d="M144 195.005H240V291.005H144V195.005Z"/>
</mask>
<path d="M240 291.005V292.005H241V291.005H240ZM239 195.005V291.005H241V195.005H239ZM240 290.005H144V292.005H240V290.005Z" fill="#D0D5DD" fill-opacity="0.32" mask="url(#path-42-inside-19_1_3246)"/>
<mask id="path-44-inside-20_1_3246" fill="white">
<path d="M240 195.005H336V291.005H240V195.005Z"/>
</mask>
<path d="M240 195.005H336V291.005H240V195.005Z" fill="#F2F4F7" fill-opacity="0.1"/>
<path d="M336 291.005V292.005H337V291.005H336ZM335 195.005V291.005H337V195.005H335ZM336 290.005H240V292.005H336V290.005Z" fill="#D0D5DD" fill-opacity="0.32" mask="url(#path-44-inside-20_1_3246)"/>
<mask id="path-46-inside-21_1_3246" fill="white">
<path d="M336 195.005H432V291.005H336V195.005Z"/>
</mask>
<path d="M432 291.005V292.005H433V291.005H432ZM431 195.005V291.005H433V195.005H431ZM432 290.005H336V292.005H432V290.005Z" fill="#D0D5DD" fill-opacity="0.32" mask="url(#path-46-inside-21_1_3246)"/>
<mask id="path-48-inside-22_1_3246" fill="white">
<path d="M432 195.005H528V291.005H432V195.005Z"/>
</mask>
<path d="M528 291.005V292.005H529V291.005H528ZM527 195.005V291.005H529V195.005H527ZM528 290.005H432V292.005H528V290.005Z" fill="#D0D5DD" fill-opacity="0.32" mask="url(#path-48-inside-22_1_3246)"/>
<mask id="path-50-inside-23_1_3246" fill="white">
<path d="M528 195.005H624V291.005H528V195.005Z"/>
</mask>
<path d="M624 291.005V292.005H625V291.005H624ZM623 195.005V291.005H625V195.005H623ZM624 290.005H528V292.005H624V290.005Z" fill="#D0D5DD" fill-opacity="0.32" mask="url(#path-50-inside-23_1_3246)"/>
<mask id="path-52-inside-24_1_3246" fill="white">
<path d="M624 195.005H720V291.005H624V195.005Z"/>
</mask>
<path d="M720 291.005V292.005H721V291.005H720ZM719 195.005V291.005H721V195.005H719ZM720 290.005H624V292.005H720V290.005Z" fill="#D0D5DD" fill-opacity="0.32" mask="url(#path-52-inside-24_1_3246)"/>
<mask id="path-54-inside-25_1_3246" fill="white">
<path d="M720 195.005H816V291.005H720V195.005Z"/>
</mask>
<path d="M816 291.005V292.005H817V291.005H816ZM815 195.005V291.005H817V195.005H815ZM816 290.005H720V292.005H816V290.005Z" fill="#D0D5DD" fill-opacity="0.32" mask="url(#path-54-inside-25_1_3246)"/>
<mask id="path-56-inside-26_1_3246" fill="white">
<path d="M816 195.005H912V291.005H816V195.005Z"/>
</mask>
<path d="M912 291.005V292.005H913V291.005H912ZM911 195.005V291.005H913V195.005H911ZM912 290.005H816V292.005H912V290.005Z" fill="#D0D5DD" fill-opacity="0.32" mask="url(#path-56-inside-26_1_3246)"/>
<mask id="path-58-inside-27_1_3246" fill="white">
<path d="M912 195.005H1008V291.005H912V195.005Z"/>
</mask>
<path d="M1008 291.005V292.005H1009V291.005H1008ZM1007 195.005V291.005H1009V195.005H1007ZM1008 290.005H912V292.005H1008V290.005Z" fill="#D0D5DD" fill-opacity="0.32" mask="url(#path-58-inside-27_1_3246)"/>
<mask id="path-60-inside-28_1_3246" fill="white">
<path d="M1008 195.005H1104V291.005H1008V195.005Z"/>
</mask>
<path d="M1104 291.005V292.005H1105V291.005H1104ZM1103 195.005V291.005H1105V195.005H1103ZM1104 290.005H1008V292.005H1104V290.005Z" fill="#D0D5DD" fill-opacity="0.32" mask="url(#path-60-inside-28_1_3246)"/>
<mask id="path-62-inside-29_1_3246" fill="white">
<path d="M1104 195.005H1200V291.005H1104V195.005Z"/>
</mask>
<path d="M1104 195.005H1200V291.005H1104V195.005Z" fill="#F2F4F7" fill-opacity="0.1"/>
<path d="M1200 291.005V292.005H1201V291.005H1200ZM1199 195.005V291.005H1201V195.005H1199ZM1200 290.005H1104V292.005H1200V290.005Z" fill="#D0D5DD" fill-opacity="0.32" mask="url(#path-62-inside-29_1_3246)"/>
<mask id="path-64-inside-30_1_3246" fill="white">
<path d="M1200 195.005H1296V291.005H1200V195.005Z"/>
</mask>
<path d="M1296 291.005V292.005H1297V291.005H1296ZM1295 195.005V291.005H1297V195.005H1295ZM1296 290.005H1200V292.005H1296V290.005Z" fill="#D0D5DD" fill-opacity="0.32" mask="url(#path-64-inside-30_1_3246)"/>
<mask id="path-66-inside-31_1_3246" fill="white">
<path d="M1296 195.005H1392V291.005H1296V195.005Z"/>
</mask>
<path d="M1392 291.005V292.005H1393V291.005H1392ZM1391 195.005V291.005H1393V195.005H1391ZM1392 290.005H1296V292.005H1392V290.005Z" fill="#D0D5DD" fill-opacity="0.32" mask="url(#path-66-inside-31_1_3246)"/>
<mask id="path-68-inside-32_1_3246" fill="white">
<path d="M1392 195.005H1488V291.005H1392V195.005Z"/>
</mask>
<path d="M1488 291.005V292.005H1489V291.005H1488ZM1487 195.005V291.005H1489V195.005H1487ZM1488 290.005H1392V292.005H1488V290.005Z" fill="#D0D5DD" fill-opacity="0.32" mask="url(#path-68-inside-32_1_3246)"/>
<mask id="path-70-inside-33_1_3246" fill="white">
<path d="M-48 291.005H48V387.005H-48V291.005Z"/>
</mask>
<path d="M48 387.005V388.005H49V387.005H48ZM47 291.005V387.005H49V291.005H47ZM48 386.005H-48V388.005H48V386.005Z" fill="#D0D5DD" fill-opacity="0.32" mask="url(#path-70-inside-33_1_3246)"/>
<mask id="path-72-inside-34_1_3246" fill="white">
<path d="M48 291.005H144V387.005H48V291.005Z"/>
</mask>
<path d="M144 387.005V388.005H145V387.005H144ZM143 291.005V387.005H145V291.005H143ZM144 386.005H48V388.005H144V386.005Z" fill="#D0D5DD" fill-opacity="0.32" mask="url(#path-72-inside-34_1_3246)"/>
<mask id="path-74-inside-35_1_3246" fill="white">
<path d="M144 291.005H240V387.005H144V291.005Z"/>
</mask>
<path d="M240 387.005V388.005H241V387.005H240ZM239 291.005V387.005H241V291.005H239ZM240 386.005H144V388.005H240V386.005Z" fill="#D0D5DD" fill-opacity="0.32" mask="url(#path-74-inside-35_1_3246)"/>
<mask id="path-76-inside-36_1_3246" fill="white">
<path d="M240 291.005H336V387.005H240V291.005Z"/>
</mask>
<path d="M336 387.005V388.005H337V387.005H336ZM335 291.005V387.005H337V291.005H335ZM336 386.005H240V388.005H336V386.005Z" fill="#D0D5DD" fill-opacity="0.32" mask="url(#path-76-inside-36_1_3246)"/>
<mask id="path-78-inside-37_1_3246" fill="white">
<path d="M336 291.005H432V387.005H336V291.005Z"/>
</mask>
<path d="M432 387.005V388.005H433V387.005H432ZM431 291.005V387.005H433V291.005H431ZM432 386.005H336V388.005H432V386.005Z" fill="#D0D5DD" fill-opacity="0.32" mask="url(#path-78-inside-37_1_3246)"/>
<mask id="path-80-inside-38_1_3246" fill="white">
<path d="M432 291.005H528V387.005H432V291.005Z"/>
</mask>
<path d="M432 291.005H528V387.005H432V291.005Z" fill="#F2F4F7" fill-opacity="0.1"/>
<path d="M528 387.005V388.005H529V387.005H528ZM527 291.005V387.005H529V291.005H527ZM528 386.005H432V388.005H528V386.005Z" fill="#D0D5DD" fill-opacity="0.32" mask="url(#path-80-inside-38_1_3246)"/>
<mask id="path-82-inside-39_1_3246" fill="white">
<path d="M528 291.005H624V387.005H528V291.005Z"/>
</mask>
<path d="M624 387.005V388.005H625V387.005H624ZM623 291.005V387.005H625V291.005H623ZM624 386.005H528V388.005H624V386.005Z" fill="#D0D5DD" fill-opacity="0.32" mask="url(#path-82-inside-39_1_3246)"/>
<mask id="path-84-inside-40_1_3246" fill="white">
<path d="M624 291.005H720V387.005H624V291.005Z"/>
</mask>
<path d="M720 387.005V388.005H721V387.005H720ZM719 291.005V387.005H721V291.005H719ZM720 386.005H624V388.005H720V386.005Z" fill="#D0D5DD" fill-opacity="0.32" mask="url(#path-84-inside-40_1_3246)"/>
<mask id="path-86-inside-41_1_3246" fill="white">
<path d="M720 291.005H816V387.005H720V291.005Z"/>
</mask>
<path d="M816 387.005V388.005H817V387.005H816ZM815 291.005V387.005H817V291.005H815ZM816 386.005H720V388.005H816V386.005Z" fill="#D0D5DD" fill-opacity="0.32" mask="url(#path-86-inside-41_1_3246)"/>
<mask id="path-88-inside-42_1_3246" fill="white">
<path d="M816 291.005H912V387.005H816V291.005Z"/>
</mask>
<path d="M816 291.005H912V387.005H816V291.005Z" fill="#F2F4F7" fill-opacity="0.1"/>
<path d="M912 387.005V388.005H913V387.005H912ZM911 291.005V387.005H913V291.005H911ZM912 386.005H816V388.005H912V386.005Z" fill="#D0D5DD" fill-opacity="0.32" mask="url(#path-88-inside-42_1_3246)"/>
<mask id="path-90-inside-43_1_3246" fill="white">
<path d="M912 291.005H1008V387.005H912V291.005Z"/>
</mask>
<path d="M1008 387.005V388.005H1009V387.005H1008ZM1007 291.005V387.005H1009V291.005H1007ZM1008 386.005H912V388.005H1008V386.005Z" fill="#D0D5DD" fill-opacity="0.32" mask="url(#path-90-inside-43_1_3246)"/>
<mask id="path-92-inside-44_1_3246" fill="white">
<path d="M1008 291.005H1104V387.005H1008V291.005Z"/>
</mask>
<path d="M1104 387.005V388.005H1105V387.005H1104ZM1103 291.005V387.005H1105V291.005H1103ZM1104 386.005H1008V388.005H1104V386.005Z" fill="#D0D5DD" fill-opacity="0.32" mask="url(#path-92-inside-44_1_3246)"/>
<mask id="path-94-inside-45_1_3246" fill="white">
<path d="M1104 291.005H1200V387.005H1104V291.005Z"/>
</mask>
<path d="M1200 387.005V388.005H1201V387.005H1200ZM1199 291.005V387.005H1201V291.005H1199ZM1200 386.005H1104V388.005H1200V386.005Z" fill="#D0D5DD" fill-opacity="0.32" mask="url(#path-94-inside-45_1_3246)"/>
<mask id="path-96-inside-46_1_3246" fill="white">
<path d="M1200 291.005H1296V387.005H1200V291.005Z"/>
</mask>
<path d="M1296 387.005V388.005H1297V387.005H1296ZM1295 291.005V387.005H1297V291.005H1295ZM1296 386.005H1200V388.005H1296V386.005Z" fill="#D0D5DD" fill-opacity="0.32" mask="url(#path-96-inside-46_1_3246)"/>
<mask id="path-98-inside-47_1_3246" fill="white">
<path d="M1296 291.005H1392V387.005H1296V291.005Z"/>
</mask>
<path d="M1392 387.005V388.005H1393V387.005H1392ZM1391 291.005V387.005H1393V291.005H1391ZM1392 386.005H1296V388.005H1392V386.005Z" fill="#D0D5DD" fill-opacity="0.32" mask="url(#path-98-inside-47_1_3246)"/>
<mask id="path-100-inside-48_1_3246" fill="white">
<path d="M1392 291.005H1488V387.005H1392V291.005Z"/>
</mask>
<path d="M1488 387.005V388.005H1489V387.005H1488ZM1487 291.005V387.005H1489V291.005H1487ZM1488 386.005H1392V388.005H1488V386.005Z" fill="#D0D5DD" fill-opacity="0.32" mask="url(#path-100-inside-48_1_3246)"/>
<mask id="path-102-inside-49_1_3246" fill="white">
<path d="M-48 387.005H48V483.005H-48V387.005Z"/>
</mask>
<path d="M-48 387.005H48V483.005H-48V387.005Z" fill="#F2F4F7" fill-opacity="0.1"/>
<path d="M48 483.005V484.005H49V483.005H48ZM47 387.005V483.005H49V387.005H47ZM48 482.005H-48V484.005H48V482.005Z" fill="#D0D5DD" fill-opacity="0.32" mask="url(#path-102-inside-49_1_3246)"/>
<mask id="path-104-inside-50_1_3246" fill="white">
<path d="M48 387.005H144V483.005H48V387.005Z"/>
</mask>
<path d="M144 483.005V484.005H145V483.005H144ZM143 387.005V483.005H145V387.005H143ZM144 482.005H48V484.005H144V482.005Z" fill="#D0D5DD" fill-opacity="0.32" mask="url(#path-104-inside-50_1_3246)"/>
<mask id="path-106-inside-51_1_3246" fill="white">
<path d="M144 387.005H240V483.005H144V387.005Z"/>
</mask>
<path d="M240 483.005V484.005H241V483.005H240ZM239 387.005V483.005H241V387.005H239ZM240 482.005H144V484.005H240V482.005Z" fill="#D0D5DD" fill-opacity="0.32" mask="url(#path-106-inside-51_1_3246)"/>
<mask id="path-108-inside-52_1_3246" fill="white">
<path d="M240 387.005H336V483.005H240V387.005Z"/>
</mask>
<path d="M336 483.005V484.005H337V483.005H336ZM335 387.005V483.005H337V387.005H335ZM336 482.005H240V484.005H336V482.005Z" fill="#D0D5DD" fill-opacity="0.32" mask="url(#path-108-inside-52_1_3246)"/>
<mask id="path-110-inside-53_1_3246" fill="white">
<path d="M336 387.005H432V483.005H336V387.005Z"/>
</mask>
<path d="M432 483.005V484.005H433V483.005H432ZM431 387.005V483.005H433V387.005H431ZM432 482.005H336V484.005H432V482.005Z" fill="#D0D5DD" fill-opacity="0.32" mask="url(#path-110-inside-53_1_3246)"/>
<mask id="path-112-inside-54_1_3246" fill="white">
<path d="M432 387.005H528V483.005H432V387.005Z"/>
</mask>
<path d="M528 483.005V484.005H529V483.005H528ZM527 387.005V483.005H529V387.005H527ZM528 482.005H432V484.005H528V482.005Z" fill="#D0D5DD" fill-opacity="0.32" mask="url(#path-112-inside-54_1_3246)"/>
<mask id="path-114-inside-55_1_3246" fill="white">
<path d="M528 387.005H624V483.005H528V387.005Z"/>
</mask>
<path d="M624 483.005V484.005H625V483.005H624ZM623 387.005V483.005H625V387.005H623ZM624 482.005H528V484.005H624V482.005Z" fill="#D0D5DD" fill-opacity="0.32" mask="url(#path-114-inside-55_1_3246)"/>
<mask id="path-116-inside-56_1_3246" fill="white">
<path d="M624 387.005H720V483.005H624V387.005Z"/>
</mask>
<path d="M720 483.005V484.005H721V483.005H720ZM719 387.005V483.005H721V387.005H719ZM720 482.005H624V484.005H720V482.005Z" fill="#D0D5DD" fill-opacity="0.32" mask="url(#path-116-inside-56_1_3246)"/>
<mask id="path-118-inside-57_1_3246" fill="white">
<path d="M720 387.005H816V483.005H720V387.005Z"/>
</mask>
<path d="M816 483.005V484.005H817V483.005H816ZM815 387.005V483.005H817V387.005H815ZM816 482.005H720V484.005H816V482.005Z" fill="#D0D5DD" fill-opacity="0.32" mask="url(#path-118-inside-57_1_3246)"/>
<mask id="path-120-inside-58_1_3246" fill="white">
<path d="M816 387.005H912V483.005H816V387.005Z"/>
</mask>
<path d="M912 483.005V484.005H913V483.005H912ZM911 387.005V483.005H913V387.005H911ZM912 482.005H816V484.005H912V482.005Z" fill="#D0D5DD" fill-opacity="0.32" mask="url(#path-120-inside-58_1_3246)"/>
<mask id="path-122-inside-59_1_3246" fill="white">
<path d="M912 387.005H1008V483.005H912V387.005Z"/>
</mask>
<path d="M1008 483.005V484.005H1009V483.005H1008ZM1007 387.005V483.005H1009V387.005H1007ZM1008 482.005H912V484.005H1008V482.005Z" fill="#D0D5DD" fill-opacity="0.32" mask="url(#path-122-inside-59_1_3246)"/>
<mask id="path-124-inside-60_1_3246" fill="white">
<path d="M1008 387.005H1104V483.005H1008V387.005Z"/>
</mask>
<path d="M1104 483.005V484.005H1105V483.005H1104ZM1103 387.005V483.005H1105V387.005H1103ZM1104 482.005H1008V484.005H1104V482.005Z" fill="#D0D5DD" fill-opacity="0.32" mask="url(#path-124-inside-60_1_3246)"/>
<mask id="path-126-inside-61_1_3246" fill="white">
<path d="M1104 387.005H1200V483.005H1104V387.005Z"/>
</mask>
<path d="M1104 387.005H1200V483.005H1104V387.005Z" fill="#F2F4F7" fill-opacity="0.1"/>
<path d="M1200 483.005V484.005H1201V483.005H1200ZM1199 387.005V483.005H1201V387.005H1199ZM1200 482.005H1104V484.005H1200V482.005Z" fill="#D0D5DD" fill-opacity="0.32" mask="url(#path-126-inside-61_1_3246)"/>
<mask id="path-128-inside-62_1_3246" fill="white">
<path d="M1200 387.005H1296V483.005H1200V387.005Z"/>
</mask>
<path d="M1296 483.005V484.005H1297V483.005H1296ZM1295 387.005V483.005H1297V387.005H1295ZM1296 482.005H1200V484.005H1296V482.005Z" fill="#D0D5DD" fill-opacity="0.32" mask="url(#path-128-inside-62_1_3246)"/>
<mask id="path-130-inside-63_1_3246" fill="white">
<path d="M1296 387.005H1392V483.005H1296V387.005Z"/>
</mask>
<path d="M1392 483.005V484.005H1393V483.005H1392ZM1391 387.005V483.005H1393V387.005H1391ZM1392 482.005H1296V484.005H1392V482.005Z" fill="#D0D5DD" fill-opacity="0.32" mask="url(#path-130-inside-63_1_3246)"/>
<mask id="path-132-inside-64_1_3246" fill="white">
<path d="M1392 387.005H1488V483.005H1392V387.005Z"/>
</mask>
<path d="M1488 483.005V484.005H1489V483.005H1488ZM1487 387.005V483.005H1489V387.005H1487ZM1488 482.005H1392V484.005H1488V482.005Z" fill="#D0D5DD" fill-opacity="0.32" mask="url(#path-132-inside-64_1_3246)"/>
<mask id="path-134-inside-65_1_3246" fill="white">
<path d="M-48 483.005H48V579.005H-48V483.005Z"/>
</mask>
<path d="M48 579.005V580.005H49V579.005H48ZM47 483.005V579.005H49V483.005H47ZM48 578.005H-48V580.005H48V578.005Z" fill="#D0D5DD" fill-opacity="0.32" mask="url(#path-134-inside-65_1_3246)"/>
<mask id="path-136-inside-66_1_3246" fill="white">
<path d="M48 483.005H144V579.005H48V483.005Z"/>
</mask>
<path d="M144 579.005V580.005H145V579.005H144ZM143 483.005V579.005H145V483.005H143ZM144 578.005H48V580.005H144V578.005Z" fill="#D0D5DD" fill-opacity="0.32" mask="url(#path-136-inside-66_1_3246)"/>
<mask id="path-138-inside-67_1_3246" fill="white">
<path d="M144 483.005H240V579.005H144V483.005Z"/>
</mask>
<path d="M240 579.005V580.005H241V579.005H240ZM239 483.005V579.005H241V483.005H239ZM240 578.005H144V580.005H240V578.005Z" fill="#D0D5DD" fill-opacity="0.32" mask="url(#path-138-inside-67_1_3246)"/>
<mask id="path-140-inside-68_1_3246" fill="white">
<path d="M240 483.005H336V579.005H240V483.005Z"/>
</mask>
<path d="M336 579.005V580.005H337V579.005H336ZM335 483.005V579.005H337V483.005H335ZM336 578.005H240V580.005H336V578.005Z" fill="#D0D5DD" fill-opacity="0.32" mask="url(#path-140-inside-68_1_3246)"/>
<mask id="path-142-inside-69_1_3246" fill="white">
<path d="M336 483.005H432V579.005H336V483.005Z"/>
</mask>
<path d="M432 579.005V580.005H433V579.005H432ZM431 483.005V579.005H433V483.005H431ZM432 578.005H336V580.005H432V578.005Z" fill="#D0D5DD" fill-opacity="0.32" mask="url(#path-142-inside-69_1_3246)"/>
<mask id="path-144-inside-70_1_3246" fill="white">
<path d="M432 483.005H528V579.005H432V483.005Z"/>
</mask>
<path d="M528 579.005V580.005H529V579.005H528ZM527 483.005V579.005H529V483.005H527ZM528 578.005H432V580.005H528V578.005Z" fill="#D0D5DD" fill-opacity="0.32" mask="url(#path-144-inside-70_1_3246)"/>
<mask id="path-146-inside-71_1_3246" fill="white">
<path d="M528 483.005H624V579.005H528V483.005Z"/>
</mask>
<path d="M528 483.005H624V579.005H528V483.005Z" fill="#F2F4F7" fill-opacity="0.1"/>
<path d="M624 579.005V580.005H625V579.005H624ZM623 483.005V579.005H625V483.005H623ZM624 578.005H528V580.005H624V578.005Z" fill="#D0D5DD" fill-opacity="0.32" mask="url(#path-146-inside-71_1_3246)"/>
<mask id="path-148-inside-72_1_3246" fill="white">
<path d="M624 483.005H720V579.005H624V483.005Z"/>
</mask>
<path d="M720 579.005V580.005H721V579.005H720ZM719 483.005V579.005H721V483.005H719ZM720 578.005H624V580.005H720V578.005Z" fill="#D0D5DD" fill-opacity="0.32" mask="url(#path-148-inside-72_1_3246)"/>
<mask id="path-150-inside-73_1_3246" fill="white">
<path d="M720 483.005H816V579.005H720V483.005Z"/>
</mask>
<path d="M816 579.005V580.005H817V579.005H816ZM815 483.005V579.005H817V483.005H815ZM816 578.005H720V580.005H816V578.005Z" fill="#D0D5DD" fill-opacity="0.32" mask="url(#path-150-inside-73_1_3246)"/>
<mask id="path-152-inside-74_1_3246" fill="white">
<path d="M816 483.005H912V579.005H816V483.005Z"/>
</mask>
<path d="M912 579.005V580.005H913V579.005H912ZM911 483.005V579.005H913V483.005H911ZM912 578.005H816V580.005H912V578.005Z" fill="#D0D5DD" fill-opacity="0.32" mask="url(#path-152-inside-74_1_3246)"/>
<mask id="path-154-inside-75_1_3246" fill="white">
<path d="M912 483.005H1008V579.005H912V483.005Z"/>
</mask>
<path d="M1008 579.005V580.005H1009V579.005H1008ZM1007 483.005V579.005H1009V483.005H1007ZM1008 578.005H912V580.005H1008V578.005Z" fill="#D0D5DD" fill-opacity="0.32" mask="url(#path-154-inside-75_1_3246)"/>
<mask id="path-156-inside-76_1_3246" fill="white">
<path d="M1008 483.005H1104V579.005H1008V483.005Z"/>
</mask>
<path d="M1104 579.005V580.005H1105V579.005H1104ZM1103 483.005V579.005H1105V483.005H1103ZM1104 578.005H1008V580.005H1104V578.005Z" fill="#D0D5DD" fill-opacity="0.32" mask="url(#path-156-inside-76_1_3246)"/>
<mask id="path-158-inside-77_1_3246" fill="white">
<path d="M1104 483.005H1200V579.005H1104V483.005Z"/>
</mask>
<path d="M1200 579.005V580.005H1201V579.005H1200ZM1199 483.005V579.005H1201V483.005H1199ZM1200 578.005H1104V580.005H1200V578.005Z" fill="#D0D5DD" fill-opacity="0.32" mask="url(#path-158-inside-77_1_3246)"/>
<mask id="path-160-inside-78_1_3246" fill="white">
<path d="M1200 483.005H1296V579.005H1200V483.005Z"/>
</mask>
<path d="M1296 579.005V580.005H1297V579.005H1296ZM1295 483.005V579.005H1297V483.005H1295ZM1296 578.005H1200V580.005H1296V578.005Z" fill="#D0D5DD" fill-opacity="0.32" mask="url(#path-160-inside-78_1_3246)"/>
<mask id="path-162-inside-79_1_3246" fill="white">
<path d="M1296 483.005H1392V579.005H1296V483.005Z"/>
</mask>
<path d="M1392 579.005V580.005H1393V579.005H1392ZM1391 483.005V579.005H1393V483.005H1391ZM1392 578.005H1296V580.005H1392V578.005Z" fill="#D0D5DD" fill-opacity="0.32" mask="url(#path-162-inside-79_1_3246)"/>
<mask id="path-164-inside-80_1_3246" fill="white">
<path d="M1392 483.005H1488V579.005H1392V483.005Z"/>
</mask>
<path d="M1488 579.005V580.005H1489V579.005H1488ZM1487 483.005V579.005H1489V483.005H1487ZM1488 578.005H1392V580.005H1488V578.005Z" fill="#D0D5DD" fill-opacity="0.32" mask="url(#path-164-inside-80_1_3246)"/>
<mask id="path-166-inside-81_1_3246" fill="white">
<path d="M-48 579.005H48V675.005H-48V579.005Z"/>
</mask>
<path d="M48 675.005V676.005H49V675.005H48ZM47 579.005V675.005H49V579.005H47ZM48 674.005H-48V676.005H48V674.005Z" fill="#D0D5DD" fill-opacity="0.32" mask="url(#path-166-inside-81_1_3246)"/>
<mask id="path-168-inside-82_1_3246" fill="white">
<path d="M48 579.005H144V675.005H48V579.005Z"/>
</mask>
<path d="M144 675.005V676.005H145V675.005H144ZM143 579.005V675.005H145V579.005H143ZM144 674.005H48V676.005H144V674.005Z" fill="#D0D5DD" fill-opacity="0.32" mask="url(#path-168-inside-82_1_3246)"/>
<mask id="path-170-inside-83_1_3246" fill="white">
<path d="M144 579.005H240V675.005H144V579.005Z"/>
</mask>
<path d="M240 675.005V676.005H241V675.005H240ZM239 579.005V675.005H241V579.005H239ZM240 674.005H144V676.005H240V674.005Z" fill="#D0D5DD" fill-opacity="0.32" mask="url(#path-170-inside-83_1_3246)"/>
<mask id="path-172-inside-84_1_3246" fill="white">
<path d="M240 579.005H336V675.005H240V579.005Z"/>
</mask>
<path d="M240 579.005H336V675.005H240V579.005Z" fill="#F2F4F7" fill-opacity="0.1"/>
<path d="M336 675.005V676.005H337V675.005H336ZM335 579.005V675.005H337V579.005H335ZM336 674.005H240V676.005H336V674.005Z" fill="#D0D5DD" fill-opacity="0.32" mask="url(#path-172-inside-84_1_3246)"/>
<mask id="path-174-inside-85_1_3246" fill="white">
<path d="M336 579.005H432V675.005H336V579.005Z"/>
</mask>
<path d="M432 675.005V676.005H433V675.005H432ZM431 579.005V675.005H433V579.005H431ZM432 674.005H336V676.005H432V674.005Z" fill="#D0D5DD" fill-opacity="0.32" mask="url(#path-174-inside-85_1_3246)"/>
<mask id="path-176-inside-86_1_3246" fill="white">
<path d="M432 579.005H528V675.005H432V579.005Z"/>
</mask>
<path d="M528 675.005V676.005H529V675.005H528ZM527 579.005V675.005H529V579.005H527ZM528 674.005H432V676.005H528V674.005Z" fill="#D0D5DD" fill-opacity="0.32" mask="url(#path-176-inside-86_1_3246)"/>
<mask id="path-178-inside-87_1_3246" fill="white">
<path d="M528 579.005H624V675.005H528V579.005Z"/>
</mask>
<path d="M624 675.005V676.005H625V675.005H624ZM623 579.005V675.005H625V579.005H623ZM624 674.005H528V676.005H624V674.005Z" fill="#D0D5DD" fill-opacity="0.32" mask="url(#path-178-inside-87_1_3246)"/>
<mask id="path-180-inside-88_1_3246" fill="white">
<path d="M624 579.005H720V675.005H624V579.005Z"/>
</mask>
<path d="M720 675.005V676.005H721V675.005H720ZM719 579.005V675.005H721V579.005H719ZM720 674.005H624V676.005H720V674.005Z" fill="#D0D5DD" fill-opacity="0.32" mask="url(#path-180-inside-88_1_3246)"/>
<mask id="path-182-inside-89_1_3246" fill="white">
<path d="M720 579.005H816V675.005H720V579.005Z"/>
</mask>
<path d="M816 675.005V676.005H817V675.005H816ZM815 579.005V675.005H817V579.005H815ZM816 674.005H720V676.005H816V674.005Z" fill="#D0D5DD" fill-opacity="0.32" mask="url(#path-182-inside-89_1_3246)"/>
<mask id="path-184-inside-90_1_3246" fill="white">
<path d="M816 579.005H912V675.005H816V579.005Z"/>
</mask>
<path d="M816 579.005H912V675.005H816V579.005Z" fill="#F2F4F7" fill-opacity="0.1"/>
<path d="M912 675.005V676.005H913V675.005H912ZM911 579.005V675.005H913V579.005H911ZM912 674.005H816V676.005H912V674.005Z" fill="#D0D5DD" fill-opacity="0.32" mask="url(#path-184-inside-90_1_3246)"/>
<mask id="path-186-inside-91_1_3246" fill="white">
<path d="M912 579.005H1008V675.005H912V579.005Z"/>
</mask>
<path d="M1008 675.005V676.005H1009V675.005H1008ZM1007 579.005V675.005H1009V579.005H1007ZM1008 674.005H912V676.005H1008V674.005Z" fill="#D0D5DD" fill-opacity="0.32" mask="url(#path-186-inside-91_1_3246)"/>
<mask id="path-188-inside-92_1_3246" fill="white">
<path d="M1008 579.005H1104V675.005H1008V579.005Z"/>
</mask>
<path d="M1104 675.005V676.005H1105V675.005H1104ZM1103 579.005V675.005H1105V579.005H1103ZM1104 674.005H1008V676.005H1104V674.005Z" fill="#D0D5DD" fill-opacity="0.32" mask="url(#path-188-inside-92_1_3246)"/>
<mask id="path-190-inside-93_1_3246" fill="white">
<path d="M1104 579.005H1200V675.005H1104V579.005Z"/>
</mask>
<path d="M1200 675.005V676.005H1201V675.005H1200ZM1199 579.005V675.005H1201V579.005H1199ZM1200 674.005H1104V676.005H1200V674.005Z" fill="#D0D5DD" fill-opacity="0.32" mask="url(#path-190-inside-93_1_3246)"/>
<mask id="path-192-inside-94_1_3246" fill="white">
<path d="M1200 579.005H1296V675.005H1200V579.005Z"/>
</mask>
<path d="M1296 675.005V676.005H1297V675.005H1296ZM1295 579.005V675.005H1297V579.005H1295ZM1296 674.005H1200V676.005H1296V674.005Z" fill="#D0D5DD" fill-opacity="0.32" mask="url(#path-192-inside-94_1_3246)"/>
<mask id="path-194-inside-95_1_3246" fill="white">
<path d="M1296 579.005H1392V675.005H1296V579.005Z"/>
</mask>
<path d="M1392 675.005V676.005H1393V675.005H1392ZM1391 579.005V675.005H1393V579.005H1391ZM1392 674.005H1296V676.005H1392V674.005Z" fill="#D0D5DD" fill-opacity="0.32" mask="url(#path-194-inside-95_1_3246)"/>
<mask id="path-196-inside-96_1_3246" fill="white">
<path d="M1392 579.005H1488V675.005H1392V579.005Z"/>
</mask>
<path d="M1488 675.005V676.005H1489V675.005H1488ZM1487 579.005V675.005H1489V579.005H1487ZM1488 674.005H1392V676.005H1488V674.005Z" fill="#D0D5DD" fill-opacity="0.32" mask="url(#path-196-inside-96_1_3246)"/>
<mask id="path-198-inside-97_1_3246" fill="white">
<path d="M-48 675.005H48V771.005H-48V675.005Z"/>
</mask>
<path d="M48 771.005V772.005H49V771.005H48ZM47 675.005V771.005H49V675.005H47ZM48 770.005H-48V772.005H48V770.005Z" fill="#D0D5DD" fill-opacity="0.32" mask="url(#path-198-inside-97_1_3246)"/>
<mask id="path-200-inside-98_1_3246" fill="white">
<path d="M48 675.005H144V771.005H48V675.005Z"/>
</mask>
<path d="M48 675.005H144V771.005H48V675.005Z" fill="#F2F4F7" fill-opacity="0.1"/>
<path d="M144 771.005V772.005H145V771.005H144ZM143 675.005V771.005H145V675.005H143ZM144 770.005H48V772.005H144V770.005Z" fill="#D0D5DD" fill-opacity="0.32" mask="url(#path-200-inside-98_1_3246)"/>
<mask id="path-202-inside-99_1_3246" fill="white">
<path d="M144 675.005H240V771.005H144V675.005Z"/>
</mask>
<path d="M240 771.005V772.005H241V771.005H240ZM239 675.005V771.005H241V675.005H239ZM240 770.005H144V772.005H240V770.005Z" fill="#D0D5DD" fill-opacity="0.32" mask="url(#path-202-inside-99_1_3246)"/>
<mask id="path-204-inside-100_1_3246" fill="white">
<path d="M240 675.005H336V771.005H240V675.005Z"/>
</mask>
<path d="M336 771.005V772.005H337V771.005H336ZM335 675.005V771.005H337V675.005H335ZM336 770.005H240V772.005H336V770.005Z" fill="#D0D5DD" fill-opacity="0.32" mask="url(#path-204-inside-100_1_3246)"/>
<mask id="path-206-inside-101_1_3246" fill="white">
<path d="M336 675.005H432V771.005H336V675.005Z"/>
</mask>
<path d="M432 771.005V772.005H433V771.005H432ZM431 675.005V771.005H433V675.005H431ZM432 770.005H336V772.005H432V770.005Z" fill="#D0D5DD" fill-opacity="0.32" mask="url(#path-206-inside-101_1_3246)"/>
<mask id="path-208-inside-102_1_3246" fill="white">
<path d="M432 675.005H528V771.005H432V675.005Z"/>
</mask>
<path d="M528 771.005V772.005H529V771.005H528ZM527 675.005V771.005H529V675.005H527ZM528 770.005H432V772.005H528V770.005Z" fill="#D0D5DD" fill-opacity="0.32" mask="url(#path-208-inside-102_1_3246)"/>
<mask id="path-210-inside-103_1_3246" fill="white">
<path d="M528 675.005H624V771.005H528V675.005Z"/>
</mask>
<path d="M624 771.005V772.005H625V771.005H624ZM623 675.005V771.005H625V675.005H623ZM624 770.005H528V772.005H624V770.005Z" fill="#D0D5DD" fill-opacity="0.32" mask="url(#path-210-inside-103_1_3246)"/>
<mask id="path-212-inside-104_1_3246" fill="white">
<path d="M624 675.005H720V771.005H624V675.005Z"/>
</mask>
<path d="M720 771.005V772.005H721V771.005H720ZM719 675.005V771.005H721V675.005H719ZM720 770.005H624V772.005H720V770.005Z" fill="#D0D5DD" fill-opacity="0.32" mask="url(#path-212-inside-104_1_3246)"/>
<mask id="path-214-inside-105_1_3246" fill="white">
<path d="M720 675.005H816V771.005H720V675.005Z"/>
</mask>
<path d="M816 771.005V772.005H817V771.005H816ZM815 675.005V771.005H817V675.005H815ZM816 770.005H720V772.005H816V770.005Z" fill="#D0D5DD" fill-opacity="0.32" mask="url(#path-214-inside-105_1_3246)"/>
<mask id="path-216-inside-106_1_3246" fill="white">
<path d="M816 675.005H912V771.005H816V675.005Z"/>
</mask>
<path d="M912 771.005V772.005H913V771.005H912ZM911 675.005V771.005H913V675.005H911ZM912 770.005H816V772.005H912V770.005Z" fill="#D0D5DD" fill-opacity="0.32" mask="url(#path-216-inside-106_1_3246)"/>
<mask id="path-218-inside-107_1_3246" fill="white">
<path d="M912 675.005H1008V771.005H912V675.005Z"/>
</mask>
<path d="M1008 771.005V772.005H1009V771.005H1008ZM1007 675.005V771.005H1009V675.005H1007ZM1008 770.005H912V772.005H1008V770.005Z" fill="#D0D5DD" fill-opacity="0.32" mask="url(#path-218-inside-107_1_3246)"/>
<mask id="path-220-inside-108_1_3246" fill="white">
<path d="M1008 675.005H1104V771.005H1008V675.005Z"/>
</mask>
<path d="M1104 771.005V772.005H1105V771.005H1104ZM1103 675.005V771.005H1105V675.005H1103ZM1104 770.005H1008V772.005H1104V770.005Z" fill="#D0D5DD" fill-opacity="0.32" mask="url(#path-220-inside-108_1_3246)"/>
<mask id="path-222-inside-109_1_3246" fill="white">
<path d="M1104 675.005H1200V771.005H1104V675.005Z"/>
</mask>
<path d="M1200 771.005V772.005H1201V771.005H1200ZM1199 675.005V771.005H1201V675.005H1199ZM1200 770.005H1104V772.005H1200V770.005Z" fill="#D0D5DD" fill-opacity="0.32" mask="url(#path-222-inside-109_1_3246)"/>
<mask id="path-224-inside-110_1_3246" fill="white">
<path d="M1200 675.005H1296V771.005H1200V675.005Z"/>
</mask>
<path d="M1296 771.005V772.005H1297V771.005H1296ZM1295 675.005V771.005H1297V675.005H1295ZM1296 770.005H1200V772.005H1296V770.005Z" fill="#D0D5DD" fill-opacity="0.32" mask="url(#path-224-inside-110_1_3246)"/>
<mask id="path-226-inside-111_1_3246" fill="white">
<path d="M1296 675.005H1392V771.005H1296V675.005Z"/>
</mask>
<path d="M1296 675.005H1392V771.005H1296V675.005Z" fill="#F2F4F7" fill-opacity="0.1"/>
<path d="M1392 771.005V772.005H1393V771.005H1392ZM1391 675.005V771.005H1393V675.005H1391ZM1392 770.005H1296V772.005H1392V770.005Z" fill="#D0D5DD" fill-opacity="0.32" mask="url(#path-226-inside-111_1_3246)"/>
<mask id="path-228-inside-112_1_3246" fill="white">
<path d="M1392 675.005H1488V771.005H1392V675.005Z"/>
</mask>
<path d="M1488 771.005V772.005H1489V771.005H1488ZM1487 675.005V771.005H1489V675.005H1487ZM1488 770.005H1392V772.005H1488V770.005Z" fill="#D0D5DD" fill-opacity="0.32" mask="url(#path-228-inside-112_1_3246)"/>
<mask id="path-230-inside-113_1_3246" fill="white">
<path d="M-48 771.005H48V867.005H-48V771.005Z"/>
</mask>
<path d="M48 867.005V868.005H49V867.005H48ZM47 771.005V867.005H49V771.005H47ZM48 866.005H-48V868.005H48V866.005Z" fill="#D0D5DD" fill-opacity="0.32" mask="url(#path-230-inside-113_1_3246)"/>
<mask id="path-232-inside-114_1_3246" fill="white">
<path d="M48 771.005H144V867.005H48V771.005Z"/>
</mask>
<path d="M144 867.005V868.005H145V867.005H144ZM143 771.005V867.005H145V771.005H143ZM144 866.005H48V868.005H144V866.005Z" fill="#D0D5DD" fill-opacity="0.32" mask="url(#path-232-inside-114_1_3246)"/>
<mask id="path-234-inside-115_1_3246" fill="white">
<path d="M144 771.005H240V867.005H144V771.005Z"/>
</mask>
<path d="M240 867.005V868.005H241V867.005H240ZM239 771.005V867.005H241V771.005H239ZM240 866.005H144V868.005H240V866.005Z" fill="#D0D5DD" fill-opacity="0.32" mask="url(#path-234-inside-115_1_3246)"/>
<mask id="path-236-inside-116_1_3246" fill="white">
<path d="M240 771.005H336V867.005H240V771.005Z"/>
</mask>
<path d="M336 867.005V868.005H337V867.005H336ZM335 771.005V867.005H337V771.005H335ZM336 866.005H240V868.005H336V866.005Z" fill="#D0D5DD" fill-opacity="0.32" mask="url(#path-236-inside-116_1_3246)"/>
<mask id="path-238-inside-117_1_3246" fill="white">
<path d="M336 771.005H432V867.005H336V771.005Z"/>
</mask>
<path d="M432 867.005V868.005H433V867.005H432ZM431 771.005V867.005H433V771.005H431ZM432 866.005H336V868.005H432V866.005Z" fill="#D0D5DD" fill-opacity="0.32" mask="url(#path-238-inside-117_1_3246)"/>
<mask id="path-240-inside-118_1_3246" fill="white">
<path d="M432 771.005H528V867.005H432V771.005Z"/>
</mask>
<path d="M528 867.005V868.005H529V867.005H528ZM527 771.005V867.005H529V771.005H527ZM528 866.005H432V868.005H528V866.005Z" fill="#D0D5DD" fill-opacity="0.32" mask="url(#path-240-inside-118_1_3246)"/>
<mask id="path-242-inside-119_1_3246" fill="white">
<path d="M528 771.005H624V867.005H528V771.005Z"/>
</mask>
<path d="M528 771.005H624V867.005H528V771.005Z" fill="#F2F4F7" fill-opacity="0.1"/>
<path d="M624 867.005V868.005H625V867.005H624ZM623 771.005V867.005H625V771.005H623ZM624 866.005H528V868.005H624V866.005Z" fill="#D0D5DD" fill-opacity="0.32" mask="url(#path-242-inside-119_1_3246)"/>
<mask id="path-244-inside-120_1_3246" fill="white">
<path d="M624 771.005H720V867.005H624V771.005Z"/>
</mask>
<path d="M720 867.005V868.005H721V867.005H720ZM719 771.005V867.005H721V771.005H719ZM720 866.005H624V868.005H720V866.005Z" fill="#D0D5DD" fill-opacity="0.32" mask="url(#path-244-inside-120_1_3246)"/>
<mask id="path-246-inside-121_1_3246" fill="white">
<path d="M720 771.005H816V867.005H720V771.005Z"/>
</mask>
<path d="M816 867.005V868.005H817V867.005H816ZM815 771.005V867.005H817V771.005H815ZM816 866.005H720V868.005H816V866.005Z" fill="#D0D5DD" fill-opacity="0.32" mask="url(#path-246-inside-121_1_3246)"/>
<mask id="path-248-inside-122_1_3246" fill="white">
<path d="M816 771.005H912V867.005H816V771.005Z"/>
</mask>
<path d="M912 867.005V868.005H913V867.005H912ZM911 771.005V867.005H913V771.005H911ZM912 866.005H816V868.005H912V866.005Z" fill="#D0D5DD" fill-opacity="0.32" mask="url(#path-248-inside-122_1_3246)"/>
<mask id="path-250-inside-123_1_3246" fill="white">
<path d="M912 771.005H1008V867.005H912V771.005Z"/>
</mask>
<path d="M1008 867.005V868.005H1009V867.005H1008ZM1007 771.005V867.005H1009V771.005H1007ZM1008 866.005H912V868.005H1008V866.005Z" fill="#D0D5DD" fill-opacity="0.32" mask="url(#path-250-inside-123_1_3246)"/>
<mask id="path-252-inside-124_1_3246" fill="white">
<path d="M1008 771.005H1104V867.005H1008V771.005Z"/>
</mask>
<path d="M1104 867.005V868.005H1105V867.005H1104ZM1103 771.005V867.005H1105V771.005H1103ZM1104 866.005H1008V868.005H1104V866.005Z" fill="#D0D5DD" fill-opacity="0.32" mask="url(#path-252-inside-124_1_3246)"/>
<mask id="path-254-inside-125_1_3246" fill="white">
<path d="M1104 771.005H1200V867.005H1104V771.005Z"/>
</mask>
<path d="M1104 771.005H1200V867.005H1104V771.005Z" fill="#F2F4F7" fill-opacity="0.1"/>
<path d="M1200 867.005V868.005H1201V867.005H1200ZM1199 771.005V867.005H1201V771.005H1199ZM1200 866.005H1104V868.005H1200V866.005Z" fill="#D0D5DD" fill-opacity="0.32" mask="url(#path-254-inside-125_1_3246)"/>
<mask id="path-256-inside-126_1_3246" fill="white">
<path d="M1200 771.005H1296V867.005H1200V771.005Z"/>
</mask>
<path d="M1296 867.005V868.005H1297V867.005H1296ZM1295 771.005V867.005H1297V771.005H1295ZM1296 866.005H1200V868.005H1296V866.005Z" fill="#D0D5DD" fill-opacity="0.32" mask="url(#path-256-inside-126_1_3246)"/>
<mask id="path-258-inside-127_1_3246" fill="white">
<path d="M1296 771.005H1392V867.005H1296V771.005Z"/>
</mask>
<path d="M1392 867.005V868.005H1393V867.005H1392ZM1391 771.005V867.005H1393V771.005H1391ZM1392 866.005H1296V868.005H1392V866.005Z" fill="#D0D5DD" fill-opacity="0.32" mask="url(#path-258-inside-127_1_3246)"/>
<mask id="path-260-inside-128_1_3246" fill="white">
<path d="M1392 771.005H1488V867.005H1392V771.005Z"/>
</mask>
<path d="M1488 867.005V868.005H1489V867.005H1488ZM1487 771.005V867.005H1489V771.005H1487ZM1488 866.005H1392V868.005H1488V866.005Z" fill="#D0D5DD" fill-opacity="0.32" mask="url(#path-260-inside-128_1_3246)"/>
<mask id="path-262-inside-129_1_3246" fill="white">
<path d="M-48 867.005H48V963.005H-48V867.005Z"/>
</mask>
<path d="M48 963.005V964.005H49V963.005H48ZM47 867.005V963.005H49V867.005H47ZM48 962.005H-48V964.005H48V962.005Z" fill="#D0D5DD" fill-opacity="0.32" mask="url(#path-262-inside-129_1_3246)"/>
<mask id="path-264-inside-130_1_3246" fill="white">
<path d="M48 867.005H144V963.005H48V867.005Z"/>
</mask>
<path d="M144 963.005V964.005H145V963.005H144ZM143 867.005V963.005H145V867.005H143ZM144 962.005H48V964.005H144V962.005Z" fill="#D0D5DD" fill-opacity="0.32" mask="url(#path-264-inside-130_1_3246)"/>
<mask id="path-266-inside-131_1_3246" fill="white">
<path d="M144 867.005H240V963.005H144V867.005Z"/>
</mask>
<path d="M240 963.005V964.005H241V963.005H240ZM239 867.005V963.005H241V867.005H239ZM240 962.005H144V964.005H240V962.005Z" fill="#D0D5DD" fill-opacity="0.32" mask="url(#path-266-inside-131_1_3246)"/>
<mask id="path-268-inside-132_1_3246" fill="white">
<path d="M240 867.005H336V963.005H240V867.005Z"/>
</mask>
<path d="M240 867.005H336V963.005H240V867.005Z" fill="#F2F4F7" fill-opacity="0.1"/>
<path d="M336 963.005V964.005H337V963.005H336ZM335 867.005V963.005H337V867.005H335ZM336 962.005H240V964.005H336V962.005Z" fill="#D0D5DD" fill-opacity="0.32" mask="url(#path-268-inside-132_1_3246)"/>
<mask id="path-270-inside-133_1_3246" fill="white">
<path d="M336 867.005H432V963.005H336V867.005Z"/>
</mask>
<path d="M432 963.005V964.005H433V963.005H432ZM431 867.005V963.005H433V867.005H431ZM432 962.005H336V964.005H432V962.005Z" fill="#D0D5DD" fill-opacity="0.32" mask="url(#path-270-inside-133_1_3246)"/>
<mask id="path-272-inside-134_1_3246" fill="white">
<path d="M432 867.005H528V963.005H432V867.005Z"/>
</mask>
<path d="M528 963.005V964.005H529V963.005H528ZM527 867.005V963.005H529V867.005H527ZM528 962.005H432V964.005H528V962.005Z" fill="#D0D5DD" fill-opacity="0.32" mask="url(#path-272-inside-134_1_3246)"/>
<mask id="path-274-inside-135_1_3246" fill="white">
<path d="M528 867.005H624V963.005H528V867.005Z"/>
</mask>
<path d="M624 963.005V964.005H625V963.005H624ZM623 867.005V963.005H625V867.005H623ZM624 962.005H528V964.005H624V962.005Z" fill="#D0D5DD" fill-opacity="0.32" mask="url(#path-274-inside-135_1_3246)"/>
<mask id="path-276-inside-136_1_3246" fill="white">
<path d="M624 867.005H720V963.005H624V867.005Z"/>
</mask>
<path d="M720 963.005V964.005H721V963.005H720ZM719 867.005V963.005H721V867.005H719ZM720 962.005H624V964.005H720V962.005Z" fill="#D0D5DD" fill-opacity="0.32" mask="url(#path-276-inside-136_1_3246)"/>
<mask id="path-278-inside-137_1_3246" fill="white">
<path d="M720 867.005H816V963.005H720V867.005Z"/>
</mask>
<path d="M816 963.005V964.005H817V963.005H816ZM815 867.005V963.005H817V867.005H815ZM816 962.005H720V964.005H816V962.005Z" fill="#D0D5DD" fill-opacity="0.32" mask="url(#path-278-inside-137_1_3246)"/>
<mask id="path-280-inside-138_1_3246" fill="white">
<path d="M816 867.005H912V963.005H816V867.005Z"/>
</mask>
<path d="M816 867.005H912V963.005H816V867.005Z" fill="#F2F4F7" fill-opacity="0.1"/>
<path d="M912 963.005V964.005H913V963.005H912ZM911 867.005V963.005H913V867.005H911ZM912 962.005H816V964.005H912V962.005Z" fill="#D0D5DD" fill-opacity="0.32" mask="url(#path-280-inside-138_1_3246)"/>
<mask id="path-282-inside-139_1_3246" fill="white">
<path d="M912 867.005H1008V963.005H912V867.005Z"/>
</mask>
<path d="M1008 963.005V964.005H1009V963.005H1008ZM1007 867.005V963.005H1009V867.005H1007ZM1008 962.005H912V964.005H1008V962.005Z" fill="#D0D5DD" fill-opacity="0.32" mask="url(#path-282-inside-139_1_3246)"/>
<mask id="path-284-inside-140_1_3246" fill="white">
<path d="M1008 867.005H1104V963.005H1008V867.005Z"/>
</mask>
<path d="M1104 963.005V964.005H1105V963.005H1104ZM1103 867.005V963.005H1105V867.005H1103ZM1104 962.005H1008V964.005H1104V962.005Z" fill="#D0D5DD" fill-opacity="0.32" mask="url(#path-284-inside-140_1_3246)"/>
<mask id="path-286-inside-141_1_3246" fill="white">
<path d="M1104 867.005H1200V963.005H1104V867.005Z"/>
</mask>
<path d="M1200 963.005V964.005H1201V963.005H1200ZM1199 867.005V963.005H1201V867.005H1199ZM1200 962.005H1104V964.005H1200V962.005Z" fill="#D0D5DD" fill-opacity="0.32" mask="url(#path-286-inside-141_1_3246)"/>
<mask id="path-288-inside-142_1_3246" fill="white">
<path d="M1200 867.005H1296V963.005H1200V867.005Z"/>
</mask>
<path d="M1296 963.005V964.005H1297V963.005H1296ZM1295 867.005V963.005H1297V867.005H1295ZM1296 962.005H1200V964.005H1296V962.005Z" fill="#D0D5DD" fill-opacity="0.32" mask="url(#path-288-inside-142_1_3246)"/>
<mask id="path-290-inside-143_1_3246" fill="white">
<path d="M1296 867.005H1392V963.005H1296V867.005Z"/>
</mask>
<path d="M1392 963.005V964.005H1393V963.005H1392ZM1391 867.005V963.005H1393V867.005H1391ZM1392 962.005H1296V964.005H1392V962.005Z" fill="#D0D5DD" fill-opacity="0.32" mask="url(#path-290-inside-143_1_3246)"/>
<mask id="path-292-inside-144_1_3246" fill="white">
<path d="M1392 867.005H1488V963.005H1392V867.005Z"/>
</mask>
<path d="M1488 963.005V964.005H1489V963.005H1488ZM1487 867.005V963.005H1489V867.005H1487ZM1488 962.005H1392V964.005H1488V962.005Z" fill="#D0D5DD" fill-opacity="0.32" mask="url(#path-292-inside-144_1_3246)"/>
<mask id="path-294-inside-145_1_3246" fill="white">
<path d="M-48 963.005H48V1059.01H-48V963.005Z"/>
</mask>
<path d="M48 1059.01V1060.01H49V1059.01H48ZM47 963.005V1059.01H49V963.005H47ZM48 1058.01H-48V1060.01H48V1058.01Z" fill="#D0D5DD" fill-opacity="0.32" mask="url(#path-294-inside-145_1_3246)"/>
<mask id="path-296-inside-146_1_3246" fill="white">
<path d="M48 963.005H144V1059.01H48V963.005Z"/>
</mask>
<path d="M144 1059.01V1060.01H145V1059.01H144ZM143 963.005V1059.01H145V963.005H143ZM144 1058.01H48V1060.01H144V1058.01Z" fill="#D0D5DD" fill-opacity="0.32" mask="url(#path-296-inside-146_1_3246)"/>
<mask id="path-298-inside-147_1_3246" fill="white">
<path d="M144 963.005H240V1059.01H144V963.005Z"/>
</mask>
<path d="M240 1059.01V1060.01H241V1059.01H240ZM239 963.005V1059.01H241V963.005H239ZM240 1058.01H144V1060.01H240V1058.01Z" fill="#D0D5DD" fill-opacity="0.32" mask="url(#path-298-inside-147_1_3246)"/>
<mask id="path-300-inside-148_1_3246" fill="white">
<path d="M240 963.005H336V1059.01H240V963.005Z"/>
</mask>
<path d="M336 1059.01V1060.01H337V1059.01H336ZM335 963.005V1059.01H337V963.005H335ZM336 1058.01H240V1060.01H336V1058.01Z" fill="#D0D5DD" fill-opacity="0.32" mask="url(#path-300-inside-148_1_3246)"/>
<mask id="path-302-inside-149_1_3246" fill="white">
<path d="M336 963.005H432V1059.01H336V963.005Z"/>
</mask>
<path d="M432 1059.01V1060.01H433V1059.01H432ZM431 963.005V1059.01H433V963.005H431ZM432 1058.01H336V1060.01H432V1058.01Z" fill="#D0D5DD" fill-opacity="0.32" mask="url(#path-302-inside-149_1_3246)"/>
<mask id="path-304-inside-150_1_3246" fill="white">
<path d="M432 963.005H528V1059.01H432V963.005Z"/>
</mask>
<path d="M528 1059.01V1060.01H529V1059.01H528ZM527 963.005V1059.01H529V963.005H527ZM528 1058.01H432V1060.01H528V1058.01Z" fill="#D0D5DD" fill-opacity="0.32" mask="url(#path-304-inside-150_1_3246)"/>
<mask id="path-306-inside-151_1_3246" fill="white">
<path d="M528 963.005H624V1059.01H528V963.005Z"/>
</mask>
<path d="M624 1059.01V1060.01H625V1059.01H624ZM623 963.005V1059.01H625V963.005H623ZM624 1058.01H528V1060.01H624V1058.01Z" fill="#D0D5DD" fill-opacity="0.32" mask="url(#path-306-inside-151_1_3246)"/>
<mask id="path-308-inside-152_1_3246" fill="white">
<path d="M624 963.005H720V1059.01H624V963.005Z"/>
</mask>
<path d="M720 1059.01V1060.01H721V1059.01H720ZM719 963.005V1059.01H721V963.005H719ZM720 1058.01H624V1060.01H720V1058.01Z" fill="#D0D5DD" fill-opacity="0.32" mask="url(#path-308-inside-152_1_3246)"/>
<mask id="path-310-inside-153_1_3246" fill="white">
<path d="M720 963.005H816V1059.01H720V963.005Z"/>
</mask>
<path d="M816 1059.01V1060.01H817V1059.01H816ZM815 963.005V1059.01H817V963.005H815ZM816 1058.01H720V1060.01H816V1058.01Z" fill="#D0D5DD" fill-opacity="0.32" mask="url(#path-310-inside-153_1_3246)"/>
<mask id="path-312-inside-154_1_3246" fill="white">
<path d="M816 963.005H912V1059.01H816V963.005Z"/>
</mask>
<path d="M912 1059.01V1060.01H913V1059.01H912ZM911 963.005V1059.01H913V963.005H911ZM912 1058.01H816V1060.01H912V1058.01Z" fill="#D0D5DD" fill-opacity="0.32" mask="url(#path-312-inside-154_1_3246)"/>
<mask id="path-314-inside-155_1_3246" fill="white">
<path d="M912 963.005H1008V1059.01H912V963.005Z"/>
</mask>
<path d="M1008 1059.01V1060.01H1009V1059.01H1008ZM1007 963.005V1059.01H1009V963.005H1007ZM1008 1058.01H912V1060.01H1008V1058.01Z" fill="#D0D5DD" fill-opacity="0.32" mask="url(#path-314-inside-155_1_3246)"/>
<mask id="path-316-inside-156_1_3246" fill="white">
<path d="M1008 963.005H1104V1059.01H1008V963.005Z"/>
</mask>
<path d="M1104 1059.01V1060.01H1105V1059.01H1104ZM1103 963.005V1059.01H1105V963.005H1103ZM1104 1058.01H1008V1060.01H1104V1058.01Z" fill="#D0D5DD" fill-opacity="0.32" mask="url(#path-316-inside-156_1_3246)"/>
<mask id="path-318-inside-157_1_3246" fill="white">
<path d="M1104 963.005H1200V1059.01H1104V963.005Z"/>
</mask>
<path d="M1200 1059.01V1060.01H1201V1059.01H1200ZM1199 963.005V1059.01H1201V963.005H1199ZM1200 1058.01H1104V1060.01H1200V1058.01Z" fill="#D0D5DD" fill-opacity="0.32" mask="url(#path-318-inside-157_1_3246)"/>
<mask id="path-320-inside-158_1_3246" fill="white">
<path d="M1200 963.005H1296V1059.01H1200V963.005Z"/>
</mask>
<path d="M1296 1059.01V1060.01H1297V1059.01H1296ZM1295 963.005V1059.01H1297V963.005H1295ZM1296 1058.01H1200V1060.01H1296V1058.01Z" fill="#D0D5DD" fill-opacity="0.32" mask="url(#path-320-inside-158_1_3246)"/>
<mask id="path-322-inside-159_1_3246" fill="white">
<path d="M1296 963.005H1392V1059.01H1296V963.005Z"/>
</mask>
<path d="M1392 1059.01V1060.01H1393V1059.01H1392ZM1391 963.005V1059.01H1393V963.005H1391ZM1392 1058.01H1296V1060.01H1392V1058.01Z" fill="#D0D5DD" fill-opacity="0.32" mask="url(#path-322-inside-159_1_3246)"/>
<mask id="path-324-inside-160_1_3246" fill="white">
<path d="M1392 963.005H1488V1059.01H1392V963.005Z"/>
</mask>
<path d="M1392 963.005H1488V1059.01H1392V963.005Z" fill="#F2F4F7" fill-opacity="0.1"/>
<path d="M1488 1059.01V1060.01H1489V1059.01H1488ZM1487 963.005V1059.01H1489V963.005H1487ZM1488 1058.01H1392V1060.01H1488V1058.01Z" fill="#D0D5DD" fill-opacity="0.32" mask="url(#path-324-inside-160_1_3246)"/>
</g>
<rect x="-239.5" y="99.5054" width="1919" height="1439" stroke="#D0D5DD" stroke-opacity="0.32"/>
</g>
</g>
<defs>
<filter id="filter0_f_1_3246" x="-435" y="328" width="1153" height="1153" filterUnits="userSpaceOnUse" color-interpolation-filters="sRGB">
<feFlood flood-opacity="0" result="BackgroundImageFix"/>
<feBlend mode="normal" in="SourceGraphic" in2="BackgroundImageFix" result="shape"/>
<feGaussianBlur stdDeviation="200" result="effect1_foregroundBlur_1_3246"/>
</filter>
<filter id="filter1_f_1_3246" x="175" y="118" width="553" height="553" filterUnits="userSpaceOnUse" color-interpolation-filters="sRGB">
<feFlood flood-opacity="0" result="BackgroundImageFix"/>
<feBlend mode="normal" in="SourceGraphic" in2="BackgroundImageFix" result="shape"/>
<feGaussianBlur stdDeviation="50" result="effect1_foregroundBlur_1_3246"/>
</filter>
<filter id="filter2_f_1_3246" x="764.512" y="-470" width="1049.82" height="1049.82" filterUnits="userSpaceOnUse" color-interpolation-filters="sRGB">
<feFlood flood-opacity="0" result="BackgroundImageFix"/>
<feBlend mode="normal" in="SourceGraphic" in2="BackgroundImageFix" result="shape"/>
<feGaussianBlur stdDeviation="200" result="effect1_foregroundBlur_1_3246"/>
</filter>
<radialGradient id="paint0_radial_1_3246" cx="0" cy="0" r="1" gradientUnits="userSpaceOnUse" gradientTransform="translate(720 -0.000142694) rotate(90) scale(1197 751.588)">
<stop/>
<stop offset="0.953125" stop-opacity="0"/>
</radialGradient>
<clipPath id="clip0_1_3246">
<rect width="1435.58" height="981.995" fill="white" transform="translate(2 99.0054)"/>
</clipPath>
<clipPath id="clip1_1_3246">
<rect x="-240" y="99.0054" width="1920" height="1440" fill="white"/>
</clipPath>
</defs>
</svg>
