<svg width="59" height="59" viewBox="0 0 59 59" fill="none" xmlns="http://www.w3.org/2000/svg">
<rect x="1.5" y="1.5" width="56" height="56" rx="28" fill="#1D9B5E"/>
<rect x="0.75" y="0.75" width="57.5" height="57.5" rx="28.75" stroke="#0A1519" stroke-opacity="0.08" stroke-width="1.5"/>
<path d="M29.8334 26.8331C31.0576 26.8331 32.0616 27.776 32.159 28.975L32.1667 29.1664V40.5C32.1667 41.7242 31.2239 42.7282 30.0247 42.8256L29.8334 42.8333H18.5C17.2758 42.8333 16.2718 41.8905 16.1744 40.6913L16.1667 40.5V29.1664C16.1667 27.9422 17.1095 26.9382 18.3086 26.8408L18.5 26.8331H29.8334ZM23.5 28.832L18.5 28.833C18.3422 28.833 18.21 28.9428 18.1755 29.09L18.1667 29.1664V40.5C18.1667 40.6577 18.2763 40.79 18.4236 40.8245L18.5 40.8333L23.5 40.832V28.832ZM29.8334 28.833L24.8334 28.832V40.832L29.8334 40.8333C29.9911 40.8333 30.1234 40.7237 30.1579 40.5764L30.1667 40.5V29.1664C30.1667 29.0086 30.0571 28.8765 29.9098 28.8418L29.8334 28.833ZM27.6667 37.5C28.219 37.5 28.6667 37.9477 28.6667 38.5C28.6667 39.0062 28.2904 39.4246 27.8024 39.4909L27.6667 39.5H27C26.4477 39.5 26 39.0522 26 38.5C26 37.9937 26.3762 37.5753 26.8643 37.509L27 37.5H27.6667ZM21.3334 37.5C21.8856 37.5 22.3334 37.9477 22.3334 38.5C22.3334 39.0062 21.9572 39.4246 21.469 39.4909L21.3334 39.5H20.6667C20.1144 39.5 19.6667 39.0522 19.6667 38.5C19.6667 37.9937 20.0429 37.5753 20.531 37.509L20.6667 37.5H21.3334ZM39.8334 16.1666C41.4212 16.1666 42.7208 17.4002 42.8264 18.9612L42.8334 19.1666V31.1666C42.8334 32.7545 41.5998 34.0541 40.0387 34.1597L39.8334 34.1666H36.172V36.8333H37.8334C38.3856 36.8333 38.8334 37.281 38.8334 37.8333C38.8334 38.3396 38.4571 38.758 37.9691 38.8242L37.8334 38.8333H33.5V36.8333H34.172V34.1666H33.5V32.1666H39.8334C40.3396 32.1666 40.758 31.7904 40.8243 31.3024L40.8334 31.1666V19.1666C40.8334 18.6143 40.3856 18.1666 39.8334 18.1666H21.8334C21.3271 18.1666 20.9087 18.5428 20.8425 19.0309L20.8334 19.1666V25.5H18.8334V19.1666C18.8334 17.5788 20.0669 16.2791 21.628 16.1735L21.8334 16.1666H39.8334Z" fill="white"/>
</svg>
