<svg width="44" height="44" viewBox="0 0 44 44" fill="none" xmlns="http://www.w3.org/2000/svg">
<rect width="44" height="44" rx="12" fill="white" fill-opacity="0.04"/>
<g clip-path="url(#clip0_1_14771)">
<path fill-rule="evenodd" clip-rule="evenodd" d="M21.9968 12.0068C19.2819 12.0068 18.9414 12.0183 17.8752 12.067C16.8111 12.1155 16.0844 12.2845 15.4485 12.5317C14.7911 12.7871 14.2336 13.1289 13.6779 13.6847C13.1221 14.2405 12.7803 14.798 12.5248 15.4554C12.2777 16.0912 12.1087 16.818 12.0602 17.882C12.0115 18.9483 12 19.2887 12 22.0037C12 24.7187 12.0115 25.0591 12.0602 26.1254C12.1087 27.1894 12.2777 27.9162 12.5248 28.552C12.7803 29.2094 13.1221 29.7669 13.6779 30.3227C14.2336 30.8784 14.7911 31.2202 15.4485 31.4757C16.0844 31.7228 16.8111 31.8918 17.8752 31.9404C18.9414 31.989 19.2819 32.0005 21.9968 32.0005C24.7118 32.0005 25.0522 31.989 26.1185 31.9404C27.1826 31.8918 27.9092 31.7228 28.5452 31.4757C29.2025 31.2202 29.76 30.8784 30.3158 30.3227C30.8716 29.7669 31.2134 29.2094 31.4689 28.552C31.716 27.9162 31.885 27.1894 31.9335 26.1254C31.9822 25.0591 31.9937 24.7187 31.9937 22.0037C31.9937 19.2887 31.9822 18.9483 31.9335 17.882C31.885 16.818 31.716 16.0912 31.4689 15.4554C31.2134 14.798 30.8716 14.2405 30.3158 13.6847C29.76 13.1289 29.2025 12.7871 28.5452 12.5317C27.9092 12.2845 27.1826 12.1155 26.1185 12.067C25.0522 12.0183 24.7118 12.0068 21.9968 12.0068ZM18.6646 22.0037C18.6646 23.8441 20.1565 25.336 21.9968 25.336C23.8372 25.336 25.3292 23.8441 25.3292 22.0037C25.3292 20.1633 23.8372 18.6714 21.9968 18.6714C20.1565 18.6714 18.6646 20.1633 18.6646 22.0037ZM16.8633 22.0037C16.8633 19.1685 19.1617 16.8702 21.9968 16.8702C24.832 16.8702 27.1303 19.1685 27.1303 22.0037C27.1303 24.8388 24.832 27.1372 21.9968 27.1372C19.1617 27.1372 16.8633 24.8388 16.8633 22.0037ZM27.3332 17.867C27.9957 17.867 28.5328 17.3299 28.5328 16.6674C28.5328 16.0048 27.9957 15.4677 27.3332 15.4677C26.6707 15.4677 26.1336 16.0048 26.1336 16.6674C26.1336 17.3299 26.6707 17.867 27.3332 17.867Z" fill="white" fill-opacity="0.7"/>
</g>
<defs>
<clipPath id="clip0_1_14771">
<rect width="20" height="20" fill="white" transform="translate(12 12)"/>
</clipPath>
</defs>
</svg>
