<svg width="44" height="44" viewBox="0 0 44 44" fill="none" xmlns="http://www.w3.org/2000/svg">
<rect width="44" height="44" rx="12" fill="white" fill-opacity="0.04"/>
<g clip-path="url(#clip0_1_14767)">
<path fill-rule="evenodd" clip-rule="evenodd" d="M16.5509 31.5396V18.666H12.2725V31.5396H16.5509V31.5396ZM14.4121 16.9089C15.9037 16.9089 16.8328 15.9196 16.8328 14.6842C16.8046 13.4214 15.9037 12.46 14.4401 12.46C12.9763 12.46 12.0195 13.4214 12.0195 14.6843C12.0195 15.9196 12.9481 16.909 14.384 16.909L14.4121 16.9089ZM18.9189 31.5396C18.9189 31.5396 18.975 19.8739 18.9189 18.666H23.198V20.533H23.1696C23.7323 19.6545 24.746 18.3637 27.054 18.3637C29.8698 18.3637 31.9804 20.2037 31.9804 24.158V31.5396H27.702V24.6526C27.702 22.9221 27.0829 21.7413 25.5341 21.7413C24.3523 21.7413 23.648 22.5373 23.3387 23.3069C23.2256 23.5808 23.198 23.9655 23.198 24.3503V31.5396H18.9189Z" fill="white" fill-opacity="0.7"/>
</g>
<defs>
<clipPath id="clip0_1_14767">
<rect width="20" height="20" fill="white" transform="translate(12 12)"/>
</clipPath>
</defs>
</svg>
