<svg width="59" height="59" viewBox="0 0 59 59" fill="none" xmlns="http://www.w3.org/2000/svg">
<rect x="1.5" y="1.5" width="56" height="56" rx="28" fill="#1D9B5E"/>
<rect x="0.75" y="0.75" width="57.5" height="57.5" rx="28.75" stroke="#0A1519" stroke-opacity="0.08" stroke-width="1.5"/>
<path d="M41.1364 22.2273V36.7728C41.1364 42.591 39.6818 44.0455 33.8636 44.0455H25.1364C19.3182 44.0455 17.8636 42.591 17.8636 36.7728V22.2273C17.8636 16.4091 19.3182 14.9546 25.1364 14.9546H33.8636C39.6818 14.9546 41.1364 16.4091 41.1364 22.2273Z" stroke="white" stroke-width="2.18182" stroke-linecap="round" stroke-linejoin="round"/>
<path d="M32.4091 20.0454H26.5909" stroke="white" stroke-width="2.18182" stroke-linecap="round" stroke-linejoin="round"/>
<path d="M29.4999 39.8273C30.7451 39.8273 31.7545 38.8179 31.7545 37.5728C31.7545 36.3277 30.7451 35.3182 29.4999 35.3182C28.2548 35.3182 27.2454 36.3277 27.2454 37.5728C27.2454 38.8179 28.2548 39.8273 29.4999 39.8273Z" stroke="white" stroke-width="2.18182" stroke-linecap="round" stroke-linejoin="round"/>
</svg>
