<svg width="59" height="59" viewBox="0 0 59 59" fill="none" xmlns="http://www.w3.org/2000/svg">
<rect x="1.5" y="1.5" width="56" height="56" rx="28" fill="#1D9B5E"/>
<rect x="0.75" y="0.75" width="57.5" height="57.5" rx="28.75" stroke="#0A1519" stroke-opacity="0.08" stroke-width="1.5"/>
<path fill-rule="evenodd" clip-rule="evenodd" d="M29.4307 15.1667H29.5694C30.7674 15.1667 31.7663 15.1667 32.5594 15.2733C33.3964 15.3858 34.1522 15.6334 34.7594 16.2407C35.3667 16.848 35.6143 17.6037 35.7268 18.4408C35.8056 19.0269 35.8262 19.7255 35.8315 20.5339C36.6962 20.5616 37.467 20.6122 38.152 20.7043C39.7152 20.9144 40.9806 21.3573 41.9784 22.3551C42.9762 23.3529 43.419 24.6182 43.6292 26.1814C43.8334 27.7003 43.8334 29.6411 43.8334 32.0915V32.2419C43.8334 34.6923 43.8334 36.6332 43.6292 38.1521C43.419 39.7153 42.9762 40.9806 41.9784 41.9785C40.9806 42.9762 39.7152 43.419 38.152 43.6293C36.6331 43.8334 34.6923 43.8334 32.2419 43.8334H26.7581C24.3078 43.8334 22.3669 43.8334 20.848 43.6293C19.2848 43.419 18.0195 42.9762 17.0217 41.9785C16.0239 40.9806 15.581 39.7153 15.3709 38.1521C15.1666 36.6332 15.1667 34.6923 15.1667 32.2419V32.0915C15.1667 29.6411 15.1666 27.7003 15.3709 26.1814C15.581 24.6182 16.0239 23.3529 17.0217 22.3551C18.0195 21.3573 19.2848 20.9144 20.848 20.7043C21.533 20.6122 22.3039 20.5616 23.1686 20.5339C23.1739 19.7255 23.1944 19.0269 23.2732 18.4408C23.3858 17.6037 23.6333 16.848 24.2406 16.2407C24.8479 15.6334 25.6037 15.3858 26.4407 15.2733C27.2338 15.1667 28.2327 15.1667 29.4307 15.1667ZM25.1691 20.5025C25.6733 20.5001 26.2026 20.5001 26.7581 20.5001H32.2419C32.7975 20.5001 33.3268 20.5001 33.831 20.5025C33.8254 19.742 33.8067 19.1684 33.7447 18.7073C33.6619 18.092 33.519 17.8287 33.3452 17.6549C33.1715 17.4811 32.9082 17.3382 32.2928 17.2555C31.6488 17.1689 30.7854 17.1667 29.5 17.1667C28.2147 17.1667 27.3512 17.1689 26.7072 17.2555C26.0919 17.3382 25.8286 17.4811 25.6548 17.6549C25.4811 17.8287 25.3381 18.092 25.2554 18.7073C25.1934 19.1684 25.1747 19.742 25.1691 20.5025ZM21.1145 22.6864C19.773 22.8668 19.0002 23.205 18.4359 23.7693C17.8716 24.3336 17.5334 25.1064 17.353 26.4479C17.1688 27.8181 17.1667 29.6243 17.1667 32.1667C17.1667 34.7091 17.1688 36.5154 17.353 37.8857C17.5334 39.227 17.8716 39.9999 18.4359 40.5642C19.0002 41.1285 19.773 41.4668 21.1145 41.647C22.4847 41.8313 24.2909 41.8334 26.8334 41.8334H32.1667C34.7091 41.8334 36.5154 41.8313 37.8856 41.647C39.227 41.4668 39.9999 41.1285 40.5642 40.5642C41.1284 39.9999 41.4667 39.227 41.647 37.8857C41.8312 36.5154 41.8334 34.7091 41.8334 32.1667C41.8334 29.6243 41.8312 27.8181 41.647 26.4479C41.4667 25.1064 41.1284 24.3336 40.5642 23.7693C39.9999 23.205 39.227 22.8668 37.8856 22.6864C36.5154 22.5022 34.7091 22.5001 32.1667 22.5001H26.8334C24.2909 22.5001 22.4847 22.5022 21.1145 22.6864ZM29.5 25.8334C30.0523 25.8334 30.5 26.2811 30.5 26.8334V26.847C31.9518 27.2127 33.1667 28.3574 33.1667 29.9445C33.1667 30.4967 32.719 30.9445 32.1667 30.9445C31.6144 30.9445 31.1667 30.4967 31.1667 29.9445C31.1667 29.4325 30.599 28.7223 29.5 28.7223C28.4011 28.7223 27.8334 29.4325 27.8334 29.9445C27.8334 30.4566 28.4011 31.1667 29.5 31.1667C31.3466 31.1667 33.1667 32.4465 33.1667 34.389C33.1667 35.9761 31.9518 37.1207 30.5 37.4865V37.5001C30.5 38.0523 30.0523 38.5001 29.5 38.5001C28.9478 38.5001 28.5 38.0523 28.5 37.5001V37.4865C27.0483 37.1207 25.8334 35.9761 25.8334 34.389C25.8334 33.8367 26.2811 33.389 26.8334 33.389C27.3856 33.389 27.8334 33.8367 27.8334 34.389C27.8334 34.901 28.4011 35.6111 29.5 35.6111C30.599 35.6111 31.1667 34.901 31.1667 34.389C31.1667 33.8769 30.599 33.1667 29.5 33.1667C27.6535 33.1667 25.8334 31.8871 25.8334 29.9445C25.8334 28.3574 27.0483 27.2127 28.5 26.847V26.8334C28.5 26.2811 28.9478 25.8334 29.5 25.8334Z" fill="white"/>
</svg>
