<svg width="59" height="59" viewBox="0 0 59 59" fill="none" xmlns="http://www.w3.org/2000/svg">
<rect x="1.5" y="1.5" width="56" height="56" rx="28" fill="#1D9B5E"/>
<rect x="0.75" y="0.75" width="57.5" height="57.5" rx="28.75" stroke="#0A1519" stroke-opacity="0.08" stroke-width="1.5"/>
<path fill-rule="evenodd" clip-rule="evenodd" d="M28.0934 15.1667H30.9065C32.73 15.1667 34.1997 15.1667 35.3557 15.3221C36.5558 15.4835 37.5662 15.8287 38.3689 16.6312C38.7668 17.0292 39.0522 17.4783 39.2586 17.9762C40.5014 18.1319 41.5448 18.4739 42.3689 19.2979C43.1714 20.1005 43.5166 21.111 43.678 22.3111C43.8333 23.4671 43.8333 24.9369 43.8333 26.7603V32.2399C43.8333 34.0634 43.8333 35.5331 43.678 36.6891C43.5166 37.8893 43.1714 38.8998 42.3689 39.7023C41.5448 40.5265 40.5014 40.8683 39.2586 41.0241C39.0522 41.5219 38.7668 41.971 38.3689 42.369C37.5662 43.1715 36.5558 43.5167 35.3557 43.6781C34.1997 43.8334 32.73 43.8334 30.9065 43.8334H28.0934C26.27 43.8334 24.8003 43.8334 23.6443 43.6781C22.4441 43.5167 21.4337 43.1715 20.6311 42.369C20.2332 41.971 19.9477 41.5219 19.7413 41.0241C18.4985 40.8683 17.4552 40.5265 16.6311 39.7023C15.8285 38.8998 15.4833 37.8893 15.322 36.6891C15.1666 35.5331 15.1666 34.0634 15.1666 32.2399V26.7603C15.1666 24.9369 15.1666 23.4671 15.322 22.3111C15.4833 21.111 15.8285 20.1005 16.6311 19.2979C17.4552 18.4739 18.4985 18.1319 19.7412 17.9762C19.9476 17.4783 20.2331 17.0292 20.6311 16.6312C21.4337 15.8287 22.4441 15.4835 23.6443 15.3221C24.8003 15.1667 26.27 15.1667 28.0934 15.1667ZM19.2712 20.0874C18.6877 20.228 18.324 20.4335 18.0453 20.7122C17.6763 21.0812 17.4357 21.5993 17.3042 22.5776C17.1687 23.5848 17.1666 24.9196 17.1666 26.8335V32.1669C17.1666 34.0807 17.1687 35.4155 17.3042 36.4226C17.4357 37.401 17.6763 37.9191 18.0453 38.2881C18.324 38.5667 18.6877 38.7723 19.2712 38.9129C19.1666 37.8313 19.1666 36.5047 19.1666 34.9066V24.0936C19.1666 22.4954 19.1666 21.169 19.2712 20.0874ZM39.7288 38.9129C40.3122 38.7723 40.676 38.5667 40.9546 38.2881C41.3237 37.9191 41.5642 37.401 41.6958 36.4226C41.8312 35.4155 41.8333 34.0807 41.8333 32.1669V26.8335C41.8333 24.9196 41.8312 23.5848 41.6958 22.5776C41.5642 21.5993 41.3237 21.0812 40.9546 20.7122C40.676 20.4335 40.3122 20.228 39.7288 20.0874C39.8333 21.169 39.8333 22.4955 39.8333 24.0936V34.9066C39.8333 36.5047 39.8333 37.8313 39.7288 38.9129ZM23.9108 17.3043C22.9324 17.4358 22.4143 17.6764 22.0453 18.0454C21.6763 18.4144 21.4357 18.9325 21.3042 19.9109C21.1687 20.918 21.1666 22.2529 21.1666 24.1667V34.8334C21.1666 36.7473 21.1687 38.0821 21.3042 39.0893C21.4357 40.0677 21.6763 40.5857 22.0453 40.9547C22.4143 41.3238 22.9324 41.5643 23.9108 41.6959C24.9179 41.8313 26.2527 41.8334 28.1666 41.8334H30.8333C32.7472 41.8334 34.082 41.8313 35.0892 41.6959C36.0676 41.5643 36.5856 41.3238 36.9546 40.9547C37.3237 40.5857 37.5642 40.0677 37.6958 39.0893C37.8312 38.0821 37.8333 36.7473 37.8333 34.8334V24.1667C37.8333 22.2529 37.8312 20.918 37.6958 19.9109C37.5642 18.9325 37.3237 18.4144 36.9546 18.0454C36.5856 17.6764 36.0676 17.4358 35.0892 17.3043C34.082 17.1689 32.7472 17.1667 30.8333 17.1667H28.1666C26.2527 17.1667 24.9179 17.1689 23.9108 17.3043ZM24.5 25.5001C24.5 24.9478 24.9477 24.5001 25.5 24.5001H33.5C34.0522 24.5001 34.5 24.9478 34.5 25.5001C34.5 26.0524 34.0522 26.5001 33.5 26.5001H25.5C24.9477 26.5001 24.5 26.0524 24.5 25.5001ZM24.5 30.8334C24.5 30.2811 24.9477 29.8334 25.5 29.8334H33.5C34.0522 29.8334 34.5 30.2811 34.5 30.8334C34.5 31.3857 34.0522 31.8334 33.5 31.8334H25.5C24.9477 31.8334 24.5 31.3857 24.5 30.8334ZM24.5 36.1667C24.5 35.6145 24.9477 35.1667 25.5 35.1667H29.5C30.0522 35.1667 30.5 35.6145 30.5 36.1667C30.5 36.719 30.0522 37.1667 29.5 37.1667H25.5C24.9477 37.1667 24.5 36.719 24.5 36.1667Z" fill="white"/>
</svg>
