<svg width="44" height="44" viewBox="0 0 44 44" fill="none" xmlns="http://www.w3.org/2000/svg">
<rect width="44" height="44" rx="12" fill="white" fill-opacity="0.04"/>
<path fill-rule="evenodd" clip-rule="evenodd" d="M18.29 29.9998C25.837 29.9998 29.965 23.8434 29.965 18.5052C29.965 18.3299 29.965 18.156 29.953 17.9827C30.756 17.4117 31.449 16.7027 32 15.8914C31.252 16.2183 30.457 16.4326 29.644 16.5271C30.5 16.0221 31.141 15.2286 31.448 14.2923C30.642 14.7629 29.761 15.095 28.842 15.2732C27.288 13.6468 24.689 13.568 23.036 15.0979C21.971 16.0844 21.518 17.5553 21.849 18.9583C18.55 18.7949 15.476 17.261 13.392 14.7376C12.303 16.5836 12.86 18.9443 14.663 20.1297C14.01 20.111 13.371 19.9379 12.8 19.6248V19.6761C12.801 21.5989 14.178 23.2545 16.092 23.6355C15.488 23.798 14.854 23.8215 14.24 23.7044C14.777 25.3505 16.318 26.478 18.073 26.5105C16.62 27.6349 14.825 28.2454 12.977 28.2434C12.651 28.2425 12.325 28.2237 12 28.1853C13.877 29.3707 16.06 29.9998 18.29 29.9969" fill="white" fill-opacity="0.7"/>
</svg>
