<svg width="59" height="59" viewBox="0 0 59 59" fill="none" xmlns="http://www.w3.org/2000/svg">
<rect x="1.5" y="1.5" width="56" height="56" rx="28" fill="#1D9B5E"/>
<rect x="0.75" y="0.75" width="57.5" height="57.5" rx="28.75" stroke="#0A1519" stroke-opacity="0.08" stroke-width="1.5"/>
<path fill-rule="evenodd" clip-rule="evenodd" d="M26.7581 17.8333H32.2418C34.6922 17.8332 36.633 17.8332 38.152 18.0374C39.7152 18.2476 40.9805 18.6904 41.9784 19.6882C42.9761 20.6861 43.4189 21.9513 43.6292 23.5146C43.7497 24.4117 43.7992 25.4561 43.8193 26.6656C43.8285 26.7201 43.8333 26.7761 43.8333 26.8333C43.8333 26.8803 43.8301 26.9265 43.8238 26.9718C43.8333 27.7261 43.8333 28.5423 43.8333 29.4247V29.5751C43.8333 32.0255 43.8333 33.9663 43.6292 35.4853C43.4189 37.0485 42.9761 38.3138 41.9784 39.3117C40.9805 40.3094 39.7152 40.7522 38.152 40.9625C36.633 41.1666 34.6922 41.1666 32.2418 41.1666H26.7581C24.3077 41.1666 22.3669 41.1666 20.8479 40.9625C19.2847 40.7522 18.0194 40.3094 17.0216 39.3117C16.0238 38.3138 15.581 37.0485 15.3708 35.4853C15.1666 33.9663 15.1666 32.0255 15.1666 29.5751V29.4247C15.1666 28.5423 15.1666 27.7261 15.1761 26.9718C15.1699 26.9265 15.1666 26.8802 15.1666 26.8333C15.1666 26.7761 15.1714 26.7201 15.1806 26.6656C15.2008 25.4561 15.2502 24.4117 15.3708 23.5146C15.581 21.9513 16.0238 20.6861 17.0216 19.6882C18.0194 18.6904 19.2847 18.2476 20.8479 18.0374C22.3669 17.8332 24.3077 17.8332 26.7581 17.8333ZM17.1693 27.8333C17.1667 28.3511 17.1666 28.9054 17.1666 29.4999C17.1666 32.0423 17.1687 33.8486 17.353 35.2189C17.5333 36.5602 17.8715 37.3331 18.4358 37.8974C19.0001 38.4617 19.773 38.7999 21.1144 38.9802C22.4846 39.1645 24.2909 39.1666 26.8333 39.1666H32.1666C34.709 39.1666 36.5153 39.1645 37.8856 38.9802C39.2269 38.7999 39.9998 38.4617 40.5641 37.8974C41.1284 37.3331 41.4666 36.5602 41.6469 35.2189C41.8312 33.8486 41.8333 32.0423 41.8333 29.4999C41.8333 28.9054 41.8332 28.3511 41.8306 27.8333H17.1693ZM41.7985 25.8333H17.2014C17.2275 25.0509 17.2731 24.375 17.353 23.7811C17.5333 22.4396 17.8715 21.6667 18.4358 21.1025C19.0001 20.5382 19.773 20.1999 21.1144 20.0196C22.4846 19.8354 24.2909 19.8333 26.8333 19.8333H32.1666C34.709 19.8333 36.5153 19.8354 37.8856 20.0196C39.2269 20.1999 39.9998 20.5382 40.5641 21.1025C41.1284 21.6667 41.4666 22.4396 41.6469 23.7811C41.7268 24.375 41.7725 25.0509 41.7985 25.8333ZM20.5 34.8333C20.5 34.281 20.9477 33.8333 21.5 33.8333H26.8333C27.3856 33.8333 27.8333 34.281 27.8333 34.8333C27.8333 35.3855 27.3856 35.8333 26.8333 35.8333H21.5C20.9477 35.8333 20.5 35.3855 20.5 34.8333ZM29.1666 34.8333C29.1666 34.281 29.6144 33.8333 30.1666 33.8333H32.1666C32.7189 33.8333 33.1666 34.281 33.1666 34.8333C33.1666 35.3855 32.7189 35.8333 32.1666 35.8333H30.1666C29.6144 35.8333 29.1666 35.3855 29.1666 34.8333Z" fill="white"/>
</svg>
